<svg xmlns="http://www.w3.org/2000/svg" viewBox="0 0 1048 286.667">
    <defs>
        <clipPath id="a" clipPathUnits="userSpaceOnUse">
            <path d="M9.852 2141.64H7859.85V1.645H9.852z" clip-rule="evenodd"/>
        </clipPath>
    </defs>
    <g clip-path="url(#a)" transform="matrix(.13333 0 0 -.13333 0 286.667)">
        <path d="M964.305 1961.23H277.902c-46.234 0-76.464-35.57-76.464-83.58v-210.21H912.5l-31.598-179.23H201.438v-485.84H14.718v885.57c0 136.93 64.02 252.51 241.845 252.51H995.91l-31.605-179.22" fill="currentColor"/>
        <path d="M1154.58 2140.45v-834.01c0-195.61 49.8-304.08 279.19-304.08h1237.69v1138.09h-188.5v-967.38H2103.3c-60.46 0-83.59 21.34-83.59 78.24v889.14h-188.49v-967.38h-385.01c-74.68 0-101.35 26.67-101.35 101.36v866.02h-190.28M3809.54 1961.23h-686.4c-46.23 0-76.46-35.57-76.46-83.58v-210.21h711.06l-31.6-179.23h-679.46v-485.84h-186.72v885.57c0 136.93 64.02 252.51 241.84 252.51h739.35l-31.61-179.22" fill="currentColor"/>
        <path d="M1168.81 9.918h8.43c18.06 0 39.14-.602 63.23-1.203 28.91-.602 52.39-.602 71.66-.602 52.39 0 87.92 7.828 111.41 24.688 42.75 30.71 68.04 95.148 68.04 174.637 0 86.113-24.08 151.148-67.44 180.656-24.69 17.465-54.8 25.293-97.56 25.293-6.02 0-37.94-.602-93.94-1.809h-63.83v-4.816c.6-10.84 1.21-42.758 1.81-95.75l1.2-100.563-1.2-99.965c-.6-52.996-1.21-84.91-1.81-95.75zm66.84 42.754v4.816l-1.2 69.86-.6 83.101v12.645c0 16.261 0 44.558.6 83.703 0 25.293.6 43.957 1.2 55.402v6.621c15.06 2.41 48.78 4.219 71.06 4.219 80.69 0 118.03-51.187 118.03-163.797 0-70.453-15.06-119.836-43.96-141.515-15.65-11.442-42.75-18.067-75.28-18.067l-33.11.602c-16.86.601-27.1.601-31.92 1.808-.6 0-1.81 0-4.82.602M1814.36 18.348v48.175c-33.13-15.054-65.04-22.28-97.56-22.28-66.24 0-96.95 37.335-96.95 116.823v10.235l6.62.605c11.44.602 40.95.602 88.53.602 56.6 0 90.32 0 101.77-.602l6.62-.605c.6 10.844.6 15.66.6 25.898 0 41.551-5.42 63.227-20.47 82.5-19.27 24.09-53.6 36.133-101.17 36.133-97.56 0-142.72-50.586-142.72-158.379 0-104.18 46.97-154.16 144.53-154.16 36.73 0 76.47 5.422 110.2 15.055zm-192.1 187.886c3.61 49.977 27.1 71.657 75.27 71.657 48.78 0 68.65-19.27 68.65-67.442v-4.215h-5.42c-10.23-.605-28.9-.605-55.4-.605h-10.24c-37.94 0-60.22 0-66.84.605h-6.02M1904.59 9.918h61.43v6.023c-1.81 19.27-3.01 54.797-3.61 106.586v13.25c0 51.184 2.41 70.457 11.44 92.133 11.44 28.903 30.7 42.754 56.6 42.754 10.84 0 22.28-1.805 36.74-6.023v43.363c-12.65 5.418-22.89 7.828-34.93 7.828-24.09 0-44.56-10.238-57.81-29.508-6.63-9.035-8.43-12.648-16.26-29.511v8.433l.6 37.938v6.023h-54.2c.61-3.012.61-4.816.61-6.023.6-10.235 1.2-33.723 1.8-70.454l.61-73.472-.61-75.875c-.6-33.723-1.2-56.602-1.8-67.442 0-1.207 0-3.613-.61-6.023" fill="currentColor" fill-rule="evenodd"/>
        <path d="M2362.93 9.918h67.44l1.2 6.023 22.29 86.11 19.87 77.082c18.66 68.648 33.72 125.258 40.95 148.14l3.01 11.442 3.61-13.25 17.47-63.231c19.87-74.07 27.7-103.578 42.75-165.601 8.43-33.121 14.45-59.614 19.27-80.692l1.81-6.023h68.05l1.2 6.023c6.03 19.27 15.05 52.989 27.7 99.965 10.84 39.739 19.27 71.055 25.9 94.543l30.1 102.973 27.1 92.137 2.41 6.019h-56.6l-1.21-6.019-18.07-76.481-24.69-99.359-18.66-75.879-18.07-63.832-3.01-12.043c-1.8 5.418-3.01 9.031-3.61 11.441-1.21 4.215-6.62 25.293-15.66 61.422l-19.87 77.082-22.88 98.156-19.27 79.493c-.6 1.203-.6 3.007-1.21 6.019h-72.26l-1.21-6.019c-3.01-15.055-9.03-42.157-18.66-82.5-12.65-52.395-21.08-85.512-24.69-98.762l-19.27-74.07-16.87-62.63-3-11.44-3.62 12.042c-.6 3.617-6.02 24.09-16.26 61.426-9.63 36.734-15.66 60.824-18.66 72.266l-22.89 96.351-20.47 87.317-1.21 6.019h-73.47l1.81-6.019c21.08-66.844 35.53-113.817 57.81-195.11l25.9-91.535 26.49-102.973 1.21-6.023" fill="currentColor"/>
        <path d="M2826.41 9.918h62.02c-.61 2.41-.61 4.816-.61 6.023-.6 9.633-1.2 31.915-1.8 67.442l-.6 75.875.6 73.472c.6 37.934 1.2 61.422 1.8 70.454 0 1.207 0 3.011.61 6.023h-62.02c0-3.012 0-4.816.6-6.023.6-10.235.6-33.723 1.2-70.454l1.2-73.472-1.2-75.875c0-33.723-.6-56.602-1.2-67.442-.6-1.207-.6-3.613-.6-6.023zm-3.02 388.414c0-24.09 11.45-37.336 32.52-37.336 23.48 0 34.32 12.043 34.32 37.336 0 24.691-10.84 37.336-33.12 37.336-22.27 0-33.72-12.645-33.72-37.336" fill="currentColor" fill-rule="evenodd"/>
        <path d="M2963.88 18.95c40.94-10.837 76.48-15.657 112-15.657 75.28 0 122.85 36.734 122.85 94.543 0 26.5-10.84 50.582-30.71 64.434-16.86 12.043-31.92 18.066-69.86 28.304-34.93 9.035-42.15 11.442-52.39 16.864-12.64 6.625-19.87 17.464-19.87 30.71 0 24.688 21.68 39.141 58.41 39.141 25.3 0 54.8-6.625 90.93-20.476v52.996c-8.43 0-10.23 0-22.88 1.203-34.32 3.613-57.21 4.82-74.67 4.82-67.44 0-110.21-33.723-110.21-86.113 0-24.09 10.24-45.77 28.31-59.02 13.85-10.234 27.7-16.258 57.82-24.683 18.66-5.422 31.3-9.036 36.73-10.84 9.03-2.41 16.86-5.422 24.08-9.637 5.42-2.41 9.64-5.418 13.25-9.633 6.63-7.23 10.24-16.863 10.24-27.101 0-28.305-25.29-45.766-66.85-45.766-33.11 0-65.63 8.43-107.18 27.098V18.949M3256.57 18.95c40.95-10.837 76.48-15.657 112.01-15.657 75.28 0 122.85 36.734 122.85 94.543 0 26.5-10.84 50.582-30.72 64.434-16.85 12.043-31.91 18.066-69.85 28.304-34.92 9.035-42.15 11.442-52.39 16.864-12.64 6.625-19.87 17.464-19.87 30.71 0 24.688 21.68 39.141 58.41 39.141 25.3 0 54.8-6.625 90.93-20.476v52.996c-8.43 0-10.23 0-22.88 1.203-34.32 3.613-57.2 4.82-74.67 4.82-67.44 0-110.2-33.723-110.2-86.113 0-24.09 10.24-45.77 28.3-59.02 13.85-10.234 27.7-16.258 57.81-24.683 18.67-5.422 31.31-9.036 36.74-10.84 9.03-2.41 16.86-5.422 24.09-9.637 5.41-2.41 9.63-5.418 13.25-9.633 6.62-7.23 10.23-16.863 10.23-27.101 0-28.305-25.29-45.766-66.84-45.766-33.13 0-65.64 8.43-107.2 27.098V18.949" fill="currentColor"/>
        <path d="M3806.41 18.348v48.175c-33.12-15.054-65.03-22.28-97.55-22.28-66.24 0-96.96 37.335-96.96 116.823v10.235l6.62.605c11.45.602 40.96.602 88.53.602 56.61 0 90.33 0 101.77-.602l6.62-.605c.6 10.844.6 15.66.6 25.898 0 41.551-5.41 63.227-20.47 82.5-19.27 24.09-53.59 36.133-101.17 36.133-97.55 0-142.72-50.586-142.72-158.379 0-104.18 46.97-154.16 144.53-154.16 36.73 0 76.48 5.422 110.2 15.055zm-192.1 187.886c3.61 49.977 27.1 71.657 75.28 71.657 48.77 0 68.65-19.27 68.65-67.442v-4.215h-5.42c-10.24-.605-28.91-.605-55.41-.605h-10.23c-37.94 0-60.22 0-66.85.605h-6.02M3896.65 9.918h62.02l-.6 6.023-.6 54.196-1.21 65.64.61 56.606c0 35.527 4.21 51.187 15.05 63.226 13.25 13.852 31.32 20.477 59.02 20.477 23.48 0 39.74-4.82 51.18-14.453 13.86-12.047 18.67-27.699 18.67-64.434l-.6-54.195-1.21-87.922v-6.621c0-18.668 0-23.488 1.81-38.543h63.83c-3.61 15.656-4.21 21.68-4.21 43.957-.61 28.305-1.21 70.461-1.21 102.977v30.109c0 6.023.6 11.445.6 17.465 0 42.152-2.4 55.398-10.23 69.851-4.82 9.637-13.25 18.071-23.48 24.09-19.27 12.043-43.36 17.465-74.08 17.465-45.16 0-77.08-12.043-98.76-36.734v6.621l-.6 17.465.6 6.023h-56.6c.6-3.012.6-4.816.6-6.023.6-10.235 1.21-33.723 1.81-70.454l.6-73.472-.6-75.875c-.6-33.723-1.21-56.602-1.81-67.442 0-1.207 0-3.613-.6-6.023" fill="currentColor" fill-rule="evenodd"/>
        <path d="M4238.1 18.95c40.95-10.837 76.47-15.657 112.01-15.657 75.27 0 122.84 36.734 122.84 94.543 0 26.5-10.84 50.582-30.71 64.434-16.86 12.043-31.92 18.066-69.85 28.304-34.93 9.035-42.16 11.442-52.39 16.864-12.65 6.625-19.88 17.464-19.88 30.71 0 24.688 21.68 39.141 58.42 39.141 25.29 0 54.79-6.625 90.93-20.476v52.996c-8.43 0-10.24 0-22.89 1.203-34.32 3.613-57.2 4.82-74.67 4.82-67.44 0-110.2-33.723-110.2-86.113 0-24.09 10.24-45.77 28.31-59.02 13.85-10.234 27.69-16.258 57.8-24.683 18.67-5.422 31.32-9.036 36.74-10.84 9.03-2.41 16.86-5.422 24.08-9.637 5.42-2.41 9.64-5.418 13.25-9.633 6.63-7.23 10.24-16.863 10.24-27.101 0-28.305-25.29-45.766-66.84-45.766-33.13 0-65.64 8.43-107.19 27.098V18.949M4760.83 311.012l-6.62.605c-15.66 1.805-36.73 3.008-46.37 3.613-9.03.602-18.07.602-27.7.602-53.59 0-85.51-10.238-107.79-34.324-25.89-28.309-39.14-69.856-39.14-122.852 0-52.386 11.44-90.328 35.52-117.422 24.09-27.101 51.79-37.941 99.36-37.941 33.12 0 64.44 5.422 93.34 15.656v45.766c-21.07-12.043-54.79-20.473-81.89-20.473-56.61 0-84.91 39.14-84.91 116.824 0 82.504 24.09 115.02 86.11 115.02 25.3 0 52.4-4.82 80.09-13.852v48.778M4842.86 9.918h62.02l-.6 6.023c-.6 15.657-1.21 40.946-1.21 75.274-.6 33.121-.6 61.422-1.2 84.305v6.625c0 40.347 4.22 59.015 14.45 71.656 12.05 14.457 32.52 22.285 60.22 22.285 51.79 0 70.46-20.477 70.46-76.477v-4.82l-2.41-118.031V62.91c0-26.496 0-33.117 2.41-52.992h63.23c-4.21 36.734-5.42 69.855-5.42 125.258 0 22.277 0 46.363.6 73.465v6.625c0 39.14-4.82 57.808-18.67 71.66-18.67 19.269-49.98 29.508-89.72 29.508-40.35 0-68.05-9.637-93.34-31.918 0 4.82-.61 8.433-.61 10.238 0 3.613.61 24.691 1.21 62.023l1.81 75.278.6 6.023h-63.83l.6-6.023 1.81-113.813.6-102.976-.6-102.371-1.81-96.954-.6-6.023" fill="currentColor"/>
        <path d="M5383.84 59.297c0-21.074 1.2-37.336 3.61-49.379h53.6c-6.02 26.496-8.43 65.637-8.43 133.086v8.426l.6 54.804v7.227c0 46.965-3.62 60.816-19.88 75.875-19.87 18.668-47.57 26.496-96.34 26.496-16.87 0-34.93-1.207-53-3.012-20.47-2.41-35.53-3.613-45.16-3.613-1.21 0-3.02 0-5.42.602l-3.01-49.383c36.13 10.84 66.24 15.66 96.95 15.66 48.78 0 68.65-14.453 68.65-51.184v-22.281c-19.87 1.203-49.38 2.406-65.04 2.406-86.11 0-131.27-34.328-131.27-101.168 0-65.636 36.73-100.566 105.38-100.566 48.78 0 78.28 16.262 98.76 56.004zm-7.83 108.394v-3.011c0-30.711-3.01-54.797-8.43-73.465-9.03-28.91-35.53-47.574-68.65-47.574-37.94 0-60.82 22.882-60.82 60.82 0 45.766 27.7 65.637 91.53 65.637 12.65 0 21.68 0 39.75-1.805l6.62-.602" fill="currentColor" fill-rule="evenodd"/>
        <path d="M5544.3 9.918h62.03l-.61 6.023c-.59 16.258-1.2 41.547-1.2 75.875 0 30.711-.6 56-.6 75.274-.6 28.906-1.2 47.574-1.2 56.605v52.391h7.22l32.52-.602c22.28-.605 26.5-1.207 40.95-1.808l4.22 36.133h-5.42c-17.47-1.204-38.55-1.805-62.64-1.805h-16.85v6.019l.6 28.907c.6 30.109 1.81 37.336 10.23 46.367 7.83 7.828 18.07 11.441 34.33 11.441 15.05 0 30.11-2.406 47.57-7.226v45.769c-6.62-.601-8.43-.601-15.65-.601h-32.52c-34.93 0-53.6-3.012-68.05-10.84-21.68-11.442-31.32-34.328-31.32-72.266v-46.969c-3.61-.601-4.81-.601-6.62-.601-2.41 0-6.02 0-11.44.601h-10.84c-1.21 0-3.01.602-5.42.602v-34.93l5.42.602 11.44.605 12.05.602h5.41v-6.023l-.6-49.981-.6-54.801-1.2-74.066-1.21-75.274V9.918M5901.87 12.93v37.933c-18.67-4.812-29.51-6.015-41.55-6.015-24.09 0-36.74 10.234-39.15 32.515-1.2 10.836-1.2 15.656-1.8 51.188v40.945l-.6 43.965v61.418H5860.92c20.47 0 33.12-.602 38.54-.602 1.8 0 1.8 0 4.21-.601l4.22 36.734c-16.86-1.805-23.48-1.805-46.37-2.406l-36.73-.602h-6.02v9.633c0 3.613 0 13.25.6 28.903l1.2 40.347.6 7.227-60.21-16.86.6-4.816.6-33.723v-30.109h-19.27c-3.61.601-7.83.601-12.65.601l-4.21.602v-34.93h4.21l15.66.602h16.86v-7.227l.6-43.957-.6-47.574-.6-43.957c-1.2-31.316-1.81-51.789-1.81-60.824 0-45.766 25.29-68.047 75.88-68.047 22.88 0 39.75 2.41 65.64 9.637M5955.11 18.95c40.94-10.837 76.47-15.657 112-15.657 75.28 0 122.85 36.734 122.85 94.543 0 26.5-10.84 50.582-30.71 64.434-16.86 12.043-31.92 18.066-69.86 28.304-34.93 9.035-42.15 11.442-52.39 16.864-12.64 6.625-19.87 17.464-19.87 30.71 0 24.688 21.68 39.141 58.41 39.141 25.3 0 54.8-6.625 90.94-20.476v52.996c-8.44 0-10.24 0-22.89 1.203-34.32 3.613-57.21 4.82-74.67 4.82-67.45 0-110.2-33.723-110.2-86.113 0-24.09 10.24-45.77 28.3-59.02 13.85-10.234 27.7-16.258 57.81-24.683 18.67-5.422 31.31-9.036 36.73-10.84 9.04-2.41 16.87-5.422 24.09-9.637 5.42-2.41 9.64-5.418 13.25-9.633 6.62-7.23 10.24-16.863 10.24-27.101 0-28.305-25.3-45.766-66.84-45.766-33.13 0-65.64 8.43-107.19 27.098V18.949M6267.68 9.918h62.02l-.6 6.023c-.6 16.258-1.2 41.547-1.2 75.875 0 30.711-.61 56-.61 75.274-.6 28.906-1.2 47.574-1.2 56.605v52.391h7.23l32.51-.602c22.28-.605 26.5-1.207 40.95-1.808l4.22 36.133h-5.42c-17.47-1.204-38.54-1.805-62.63-1.805h-16.86v6.019l.6 28.907c.6 30.109 1.81 37.336 10.24 46.367 7.82 7.828 18.06 11.441 34.32 11.441 15.05 0 30.11-2.406 47.58-7.226v45.769c-6.63-.601-8.43-.601-15.66-.601h-32.52c-34.93 0-53.59-3.012-68.04-10.84-21.68-11.442-31.32-34.328-31.32-72.266v-46.969c-3.61-.601-4.82-.601-6.63-.601-2.41 0-6.02 0-11.44.601h-10.84c-1.2 0-3.01.602-5.42.602v-34.93l5.42.602 11.44.605 12.05.602h5.42v-6.023l-.6-49.981-.6-54.801-1.21-74.066-1.2-75.274V9.918" fill="currentColor"/>
        <path d="M6428.34 159.258c0-107.188 45.76-156.567 144.52-156.567 98.15 0 145.73 49.38 145.73 152.954 0 110.203-45.17 160.187-144.53 160.187-99.96 0-145.72-49.383-145.72-156.574zm62.02.601c0 82.504 24.09 116.829 82.5 116.829 57.81 0 83.71-35.528 83.71-113.817 0-86.113-24.09-121.035-82.51-121.035-59.01 0-83.7 34.32-83.7 118.023M6794.28 9.918h62.02l-.6 6.023-.6 54.196-1.21 65.64.61 56.606c0 35.527 4.21 51.187 15.05 63.226 13.25 13.852 31.32 20.477 59.02 20.477 23.48 0 39.74-4.82 51.18-14.453 13.85-12.047 18.67-27.699 18.67-64.434l-.6-54.195-1.21-87.922v-6.621c0-18.668 0-23.488 1.81-38.543h63.83c-3.61 15.656-4.21 21.68-4.21 43.957-.61 28.305-1.21 70.461-1.21 102.977v30.109c0 6.023.6 11.445.6 17.465 0 42.152-2.41 55.398-10.23 69.851-4.82 9.637-13.25 18.071-23.49 24.09-19.27 12.043-43.35 17.465-74.07 17.465-45.16 0-77.08-12.043-98.76-36.734v6.621l-.6 17.465.6 6.023h-56.6c.6-3.012.6-4.816.6-6.023.6-10.235 1.2-33.723 1.8-70.454l.61-73.472-.61-75.875c-.6-33.723-1.2-56.602-1.8-67.442 0-1.207 0-3.613-.6-6.023M7357.93 58.691c0-24.082.61-36.73 2.41-48.773h56c-3.61 18.668-5.41 38.543-7.22 69.855-1.2 28.903-2.41 86.11-2.41 145.129 0 78.282 1.81 177.645 3.02 208.961v4.215h-61.43v-4.816c.6-14.457 1.2-35.532 1.81-63.235.6-22.285 1.2-39.742 1.2-51.183v-6.625l-.6-7.227c-9.03 3.012-12.05 3.613-18.07 5.418-15.05 3.613-34.32 5.422-52.39 5.422-90.93 0-142.11-59.019-142.11-163.195 0-99.965 41.55-149.344 125.85-149.344 51.8 0 77.08 15.055 93.94 55.398zm-7.22 206.555l.6-6.625V232.73c0-31.316-.6-65.039-1.2-95.148-.61-18.668-2.41-34.926-6.63-48.176-7.83-27.703-34.32-45.765-66.84-45.765-51.19 0-75.88 36.734-75.88 113.211 0 80.695 28.91 119.836 88.53 119.836 20.47 0 37.93-3.614 61.42-11.442" fill="currentColor" fill-rule="evenodd"/>
        <path d="M7485.38 18.95c40.95-10.837 76.48-15.657 112.01-15.657 75.27 0 122.84 36.734 122.84 94.543 0 26.5-10.84 50.582-30.71 64.434-16.86 12.043-31.91 18.066-69.85 28.304-34.93 9.035-42.15 11.442-52.39 16.864-12.65 6.625-19.87 17.464-19.87 30.71 0 24.688 21.67 39.141 58.41 39.141 25.29 0 54.79-6.625 90.93-20.476v52.996c-8.43 0-10.24 0-22.89 1.203-34.32 3.613-57.2 4.82-74.66 4.82-67.45 0-110.21-33.723-110.21-86.113 0-24.09 10.24-45.77 28.31-59.02 13.84-10.234 27.7-16.258 57.8-24.683 18.67-5.422 31.32-9.036 36.74-10.84 9.04-2.41 16.86-5.422 24.09-9.637 5.42-2.41 9.63-5.418 13.25-9.633 6.62-7.23 10.23-16.863 10.23-27.101 0-28.305-25.29-45.766-66.84-45.766-33.12 0-65.64 8.43-107.19 27.098V18.949M7788.32 40.633c0-24.692 10.84-36.738 32.52-36.738 22.88 0 33.72 12.046 33.72 36.132 0 25.891-10.84 37.938-33.12 37.938-22.28 0-33.12-12.047-33.12-37.332" fill="currentColor"/>
    </g>
</svg>
