<svg xmlns="http://www.w3.org/2000/svg" viewBox="0 0 660.787 180.107">
    <g fill="currentColor">
        <path d="M53.405 56.647a2.167 2.167 0 01-.928 2.657 2.156 2.156 0 01-2.943-.785 2.139 2.139 0 01-.086-1.988l-1.226-.576a3.494 3.494 0 00.136 3.243 3.509 3.509 0 004.796 1.28l.002-.002a3.514 3.514 0 001.514-4.32l-1.265.491M55.956 50.42a2.173 2.173 0 01-.438 1.647 2.153 2.153 0 01-3.756-.694 2.137 2.137 0 01.364-1.955l-1.065-.838a3.504 3.504 0 00.598 4.928c.939.73 2.134.914 3.191.589l.001-.002a3.513 3.513 0 002.447-3.868l-1.342.192M59.514 46.143a2.155 2.155 0 01-3.504-1.522 2.139 2.139 0 01.795-1.824l-.85-1.057a3.493 3.493 0 00-1.298 2.976c.048.69.305 1.381.774 1.963a3.513 3.513 0 002.975 1.29h.002a3.522 3.522 0 003.255-3.22l-1.353-.114a2.175 2.175 0 01-.796 1.508M63.902 41.061c-.415.203-.856.26-1.278.194a2.155 2.155 0 01-1.793-2.463 2.138 2.138 0 011.184-1.597l-.59-1.222a3.498 3.498 0 00-1.935 2.606 3.509 3.509 0 002.922 4.013h.002c.685.11 1.413.015 2.084-.312a3.525 3.525 0 001.811-2.092l-1.291-.415a2.172 2.172 0 01-1.116 1.288M69.36 36.855a2.152 2.152 0 11-.969-4.193l-.3-1.322a3.506 3.506 0 00-.528 6.672h.002c.643.261 1.373.33 2.1.167a3.533 3.533 0 002.237-1.634l-1.166-.693a2.173 2.173 0 01-1.377 1.003M75.33 33.81a2.15 2.15 0 01-1.765-3.387 2.138 2.138 0 011.764-.918l.005-1.356a3.5 3.5 0 00-3.515 3.507 3.513 3.513 0 001.5 2.877h.001c.569.398 1.264.631 2.01.634a3.533 3.533 0 002.546-1.088l-.979-.939c-.395.412-.95.67-1.568.67M81.49 31.69a2.152 2.152 0 11.968-4.193l.309-1.32a3.49 3.49 0 00-3.144.807 3.513 3.513 0 00-.255 4.959h.001c.464.516 1.09.9 1.816 1.07.974.222 1.951.02 2.725-.488l-.742-1.134a2.175 2.175 0 01-1.679.298M127.63 59.304a2.15 2.15 0 01-.873-.953 2.172 2.172 0 01-.055-1.704l-1.266-.49c-.334.862-.33 1.86.09 2.766a3.523 3.523 0 001.423 1.555h.003a3.513 3.513 0 004.796-1.28 3.492 3.492 0 00.136-3.244l-1.225.577c.31.662.255 1.396-.087 1.988-.213.37-.535.679-.953.874-.664.307-1.4.25-1.99-.09M124.588 52.067a2.177 2.177 0 01-.437-1.648l-1.343-.192a3.515 3.515 0 002.447 3.868l.001.002a3.505 3.505 0 003.79-5.517l-1.066.838c.452.574.563 1.303.364 1.955a2.151 2.151 0 01-3.756.694M119.796 44.635l-1.352.114a3.522 3.522 0 003.254 3.22h.002a3.515 3.515 0 002.976-1.29 3.524 3.524 0 00.773-1.963 3.495 3.495 0 00-1.298-2.976l-.85 1.057c.57.458.842 1.143.795 1.824-.03.424-.184.843-.475 1.202a2.147 2.147 0 01-1.826.793 2.16 2.16 0 01-2-1.981M117.692 42.592h.003a3.505 3.505 0 002.921-4.013 3.494 3.494 0 00-1.936-2.606l-.59 1.222a2.132 2.132 0 011.185 1.597 2.155 2.155 0 01-4.185.981l-1.294.415c.283.88.914 1.655 1.812 2.095a3.517 3.517 0 002.084.309M114.486 33.444a3.49 3.49 0 00-2.47-2.104l-.3 1.321c.712.162 1.257.66 1.512 1.292a2.145 2.145 0 01-1.193 2.802 2.172 2.172 0 01-2.666-.903l-1.164.693a3.534 3.534 0 002.235 1.634 3.497 3.497 0 002.101-.167h.003a3.515 3.515 0 002.108-2.465 3.496 3.496 0 00-.166-2.103M107.653 29.644a3.498 3.498 0 00-2.881-1.495l.005 1.356a2.135 2.135 0 011.764.918 2.153 2.153 0 01-1.764 3.387 2.166 2.166 0 01-1.568-.67l-.978.939a3.522 3.522 0 002.545 1.088 3.514 3.514 0 003.512-3.51c0-.745-.236-1.444-.635-2.013M100.484 26.984a3.5 3.5 0 00-3.144-.808l.31 1.32a2.137 2.137 0 011.925.497 2.152 2.152 0 01-.957 3.696c-.603.139-1.2.014-1.68-.298l-.742 1.134c.773.508 1.752.71 2.725.488a3.526 3.526 0 001.816-1.069l.002-.003a3.514 3.514 0 00-.255-4.957"/>
        <path d="M90.053 177.36c-48.142 0-87.308-39.167-87.308-87.307 0-48.144 39.166-87.308 87.308-87.308 48.142 0 87.308 39.164 87.308 87.308 0 48.14-39.166 87.307-87.308 87.307m0-177.36C40.397 0 0 40.397 0 90.053c0 49.655 40.397 90.054 90.053 90.054 49.655 0 90.054-40.399 90.054-90.054C180.107 40.397 139.708 0 90.053 0"/>
        <path d="M47.248 101.325l2.232-3.866 2.231 3.866h-4.463zm2.232-5.292l-.003-.006-3.47 6.01h6.947l-3.472-6.01-.002.006M47.209 106.015a2.32 2.32 0 012.27-2.315 2.32 2.32 0 012.272 2.315 2.318 2.318 0 01-2.271 2.314 2.318 2.318 0 01-2.271-2.314m2.27 3.03c.017 0 .033.004.05.004a3.037 3.037 0 003.032-3.034 3.037 3.037 0 00-3.13-3.033 3.037 3.037 0 00-3.033 3.033 3.037 3.037 0 003.033 3.034c.016 0 .033-.003.049-.004M74.785 17.727c1.589 0 3.102-.891 3.917-1.614l-.729-.821c-.122.107-3.016 2.612-5.19.497-.694-.677-.943-1.856-.618-2.936.371-1.241 1.396-2.106 2.81-2.376 2.602-.497 4.765 1.252 7.056 3.102.524.422 1.067.86 1.606 1.261 2.323 1.724 5.035 1.737 6.416 1.737 1.383 0 4.09-.012 6.416-1.737a52.558 52.558 0 001.604-1.261c2.292-1.85 4.462-3.596 7.059-3.102 1.412.27 2.437 1.135 2.81 2.376.325 1.08.075 2.259-.62 2.936-2.173 2.115-5.067-.39-5.189-.497l-.729.821c.815.723 2.328 1.614 3.917 1.614.939 0 1.903-.311 2.767-1.151.996-.97 1.35-2.555.905-4.039-.495-1.646-1.828-2.79-3.656-3.138-3.105-.592-5.568 1.401-7.953 3.326-.515.416-1.048.846-1.568 1.232-1.132.84-2.437 1.218-3.563 1.383 1.12-.87 1.822-2.116 1.937-3.56.129-1.652-.587-3.167-1.826-3.857-1.245-.694-2.457-.862-3.605-.502-2.059.647-3.118 2.772-3.162 2.863l.988.481c.008-.017.89-1.79 2.503-2.297.85-.267 1.772-.127 2.741.413.866.483 1.362 1.587 1.266 2.814-.126 1.588-1.16 2.886-2.768 3.476-.39.142-.71.257-1.2.284-1.283-.034-3.232-.307-4.836-1.498-.522-.386-1.055-.817-1.57-1.233-2.386-1.925-4.853-3.915-7.952-3.325-1.829.348-3.162 1.492-3.656 3.138-.446 1.484-.09 3.07.906 4.039.863.84 1.827 1.15 2.766 1.15M37.747 140.088a1.204 1.204 0 00-1.522-.741c-.62.218-.958.902-.741 1.52.212.608.9.958 1.523.745.621-.213.95-.917.74-1.524M29.503 146.308c-.62.218-.957.901-.74 1.521.212.606.9.958 1.522.744.622-.213.951-.916.741-1.524-.215-.623-.9-.95-1.523-.74M34.82 147.432c-.632-.12-1.28.3-1.407.945a1.216 1.216 0 00.95 1.406 1.208 1.208 0 001.403-.95 1.2 1.2 0 00-.947-1.4M30.745 139.075a1.215 1.215 0 00.95 1.405 1.205 1.205 0 001.403-.95 1.202 1.202 0 00-.947-1.4c-.63-.12-1.279.3-1.406.945M29.351 141.883a1.214 1.214 0 00-1.692.121 1.205 1.205 0 00.12 1.688 1.2 1.2 0 001.688-.119 1.218 1.218 0 00-.116-1.69M37.049 144.344a1.204 1.204 0 00.12 1.688c.5.43 1.26.379 1.688-.117a1.22 1.22 0 00-.116-1.694 1.216 1.216 0 00-1.692.123M34.98 145.677a2.459 2.459 0 01-3.473.004 2.457 2.457 0 013.47-3.477c.96.957.96 2.516.003 3.473m-3.982-3.974a3.174 3.174 0 00.004 4.484 3.175 3.175 0 004.484-.004 3.175 3.175 0 00-.005-4.484 3.174 3.174 0 00-4.483.004M47.685 149.367a1.205 1.205 0 00-.421 1.64c.33.55 1.073.757 1.641.422a1.214 1.214 0 00.42-1.642 1.207 1.207 0 00-1.64-.42M42.493 157.533a1.202 1.202 0 00-.421 1.638c.33.55 1.073.758 1.642.425a1.213 1.213 0 00.419-1.641 1.206 1.206 0 00-1.64-.422M47.926 157.57a1.217 1.217 0 00-1.189 1.209c.007.656.57 1.193 1.214 1.185a1.205 1.205 0 001.183-1.212 1.2 1.2 0 00-1.208-1.181M42.262 150.199a1.214 1.214 0 001.212 1.186 1.207 1.207 0 001.184-1.212 1.202 1.202 0 00-1.208-1.182 1.219 1.219 0 00-1.188 1.208M41.458 153.228a1.215 1.215 0 00-1.633.457 1.204 1.204 0 00.456 1.631 1.2 1.2 0 001.629-.454c.313-.56.12-1.308-.452-1.634M51.125 153.642a1.214 1.214 0 00-1.632.457 1.202 1.202 0 00.456 1.629c.574.321 1.31.12 1.63-.455.312-.56.119-1.305-.454-1.631M44.33 156.519a2.458 2.458 0 113.403-.698 2.458 2.458 0 01-3.403.698m4-.306a3.175 3.175 0 00-.902-4.392 3.174 3.174 0 00-4.393.9 3.174 3.174 0 00.902 4.392c1.46.964 3.43.558 4.393-.9M144.621 140.867a1.2 1.2 0 00-.74-1.52 1.205 1.205 0 00-1.522.74c-.21.608.12 1.312.74 1.525a1.215 1.215 0 001.522-.745M150.603 146.308a1.206 1.206 0 00-1.523.741c-.21.608.12 1.31.741 1.524a1.217 1.217 0 001.523-.744 1.202 1.202 0 00-.741-1.52M145.287 147.432a1.201 1.201 0 00-.947 1.4c.13.644.756 1.075 1.403.95a1.216 1.216 0 00.95-1.405 1.217 1.217 0 00-1.406-.945M147.008 139.53c.13.646.757 1.075 1.403.95a1.213 1.213 0 00.95-1.403 1.217 1.217 0 00-1.406-.948 1.202 1.202 0 00-.947 1.402M150.756 141.883a1.217 1.217 0 00-.117 1.69c.428.498 1.189.548 1.688.12.493-.436.55-1.19.12-1.689a1.213 1.213 0 00-1.691-.121M141.365 144.221a1.221 1.221 0 00-.116 1.694c.428.496 1.19.546 1.688.117.494-.433.551-1.19.12-1.688a1.216 1.216 0 00-1.692-.123M145.125 145.677a2.458 2.458 0 01.004-3.473 2.458 2.458 0 013.47 3.477 2.46 2.46 0 01-3.474-.004m3.983-3.974a3.173 3.173 0 00-4.483-.004 3.175 3.175 0 00-.005 4.484 3.175 3.175 0 004.484.004 3.174 3.174 0 00.004-4.484M130.781 149.79a1.21 1.21 0 00.42 1.64 1.217 1.217 0 001.642-.423 1.204 1.204 0 00-.422-1.64 1.205 1.205 0 00-1.64.422M137.613 157.533a1.206 1.206 0 00-1.64.422 1.212 1.212 0 00.42 1.64 1.218 1.218 0 001.642-.424c.336-.563.142-1.3-.422-1.638M132.18 157.57a1.2 1.2 0 00-1.208 1.182 1.206 1.206 0 001.184 1.212 1.215 1.215 0 001.212-1.185 1.217 1.217 0 00-1.188-1.208M135.448 150.173a1.207 1.207 0 001.184 1.212c.643.004 1.207-.528 1.212-1.186a1.22 1.22 0 00-1.188-1.208 1.202 1.202 0 00-1.208 1.182M138.648 153.228a1.22 1.22 0 00-.452 1.634c.32.573 1.055.774 1.63.454.57-.327.778-1.056.455-1.63a1.216 1.216 0 00-1.633-.458M128.981 153.642a1.216 1.216 0 00-.453 1.631c.32.575 1.055.776 1.63.455.57-.325.778-1.055.456-1.63a1.214 1.214 0 00-1.633-.456M135.776 156.519a2.458 2.458 0 01-3.403-.699 2.457 2.457 0 113.403.698m1.295-3.797a3.174 3.174 0 00-4.392-.9 3.173 3.173 0 00-.902 4.392 3.174 3.174 0 004.392.9 3.174 3.174 0 00.902-4.392M34.61 87.442l3.3-1.201c.318.954.576 2.066.637 3.263h-3.702v1.098h3.701c-.064 1.192-.326 2.303-.645 3.26l-3.291-1.199-.376 1.032 3.283 1.195c-.323.776-.65 1.384-.868 1.755-2.448-1.271-7.505-4.358-7.505-6.592 0-2.232 5.06-5.322 7.509-6.592.218.368.548.974.872 1.751l-3.29 1.198.375 1.032zm2.423-5.399l-.424.208c-.355.175-1.828.918-3.454 1.97a9.596 9.596 0 00-1.011-2.768c-.473-.842-1.507-2.055-2-2.614a18.014 18.014 0 012.562-3.282c1.778-1.779 3.883-3.026 3.904-3.038l-.556-.946c-.09.053-2.244 1.326-4.124 3.208-1.841 1.84-2.9 3.785-2.944 3.866l-.184.343.262.288c.016.017 1.565 1.719 2.123 2.712.676 1.202.904 2.436.97 2.905-2.088 1.479-4.111 3.371-4.111 5.158 0 1.788 2.023 3.678 4.112 5.157-.066.468-.291 1.697-.971 2.905-.558.994-2.107 2.696-2.123 2.714l-.262.286.184.343c.045.083 1.103 2.028 2.944 3.868 1.88 1.881 4.033 3.155 4.124 3.208l.556-.948c-.02-.01-2.122-1.253-3.904-3.036a17.978 17.978 0 01-2.561-3.283c.492-.56 1.526-1.772 1.999-2.613a9.606 9.606 0 001.011-2.768 36.346 36.346 0 003.454 1.968l.426.21.269-.391c.097-.14 2.356-3.478 2.356-7.638s-2.262-7.465-2.358-7.604l-.27-.388M143.456 96.645c-.216-.371-.544-.979-.867-1.755l3.282-1.195-.375-1.032-3.29 1.199c-.32-.956-.582-2.068-.646-3.26h3.701v-1.097h-3.702c.061-1.196.321-2.308.64-3.264l3.297 1.201.375-1.032-3.288-1.198c.325-.775.654-1.382.872-1.751 2.448 1.27 7.508 4.36 7.508 6.592 0 2.233-5.058 5.32-7.507 6.592m5.463 1.47c-.676-1.201-.904-2.436-.971-2.905 2.09-1.479 4.112-3.37 4.112-5.157s-2.023-3.68-4.112-5.158c.065-.466.292-1.696.97-2.905.56-.993 2.109-2.695 2.123-2.712l.263-.288-.184-.343c-.044-.081-1.101-2.026-2.943-3.868-1.881-1.88-4.034-3.153-4.125-3.206l-.556.946c.021.012 2.123 1.255 3.905 3.038a18.035 18.035 0 012.56 3.282c-.492.559-1.525 1.77-1.998 2.612a9.692 9.692 0 00-1.012 2.77 36.35 36.35 0 00-3.454-1.97l-.424-.208-.269.388c-.096.14-2.357 3.444-2.357 7.604s2.26 7.498 2.356 7.638l.269.39.425-.209a36.191 36.191 0 003.454-1.97c.14.686.426 1.73 1.012 2.77.473.841 1.506 2.053 1.998 2.612a18.065 18.065 0 01-2.56 3.284c-1.78 1.779-3.884 3.024-3.905 3.037l.556.947c.09-.053 2.244-1.327 4.125-3.208 1.842-1.841 2.899-3.787 2.943-3.868l.184-.343-.263-.286c-.014-.018-1.562-1.72-2.122-2.714M130.972 86.106h-.686v8.767h.686v-8.767M130.286 125.923h.686v-8.766h-.686v8.766M128.395 101.325l2.234-3.871 2.235 3.87h-4.47zm-1.236.713h6.941l-3.47-6.01-3.471 6.01M130.63 114.575l-2.235-3.87h4.469l-2.235 3.87zm0 1.429l3.47-6.012h-6.941l3.47 6.012M128.361 106.015c0-1.28 1.042-2.32 2.32-2.32a2.322 2.322 0 012.319 2.32 2.32 2.32 0 01-2.319 2.319 2.322 2.322 0 01-2.32-2.319m5.352 0a3.036 3.036 0 00-3.032-3.033 3.037 3.037 0 00-3.033 3.033 3.038 3.038 0 003.033 3.034 3.037 3.037 0 003.032-3.034M49.82 94.873h.006v-7.12h-.006v-1.647h-.686v8.767h.686M49.14 117.157h-.006v8.766h.686v-1.647h.006v-7.12h-.686M49.48 114.57l-2.232-3.865h4.463l-2.231 3.865zm-3.468-4.578h-.006l3.471 6.01.003-.004.002.004 3.472-6.01h-6.942M120.948 161.781c-.943-.173-1.91-.213-2.675-.396-.776-.186-1.28-.461-1.53-1.066-.067-.171-.1-.339-.1-.503.002-.559.374-1.143 1.334-1.54.426-.173.783-.239 1.087-.239 1.007-.004 1.561.744 1.961 1.306l.178.25 1.097-.449-1.415-3.165-.28.036c-.586.073-1.756.209-3.044.73-.971.393-1.8.876-2.402 1.49-.603.61-.975 1.373-.971 2.237 0 .46.098.937.3 1.437.477 1.196 1.46 1.748 2.51 2.04.85.235 1.97.248 2.943.403.483.073.927.181 1.255.343.335.165.543.359.655.631.052.129.074.257.074.383.002.456-.335.998-1.244 1.374a2.446 2.446 0 01-.91.196c-.786 0-1.254-.537-1.59-1.106l-.167-.286-1.133.458.164.362 1.2 2.664.303-.063c.497-.106 1.632-.323 2.725-.765 1.848-.742 2.964-1.926 2.966-3.386 0-.4-.086-.81-.25-1.214-.57-1.42-1.822-1.93-3.041-2.162M139.876 32.985l.16-.257-.839-.844-2.361 2.532.143.248c.298.512.876 1.543 1.857 2.524 1.045 1.045 2.15 1.768 3.315 1.879h.013c.913.08 1.83-.266 2.621-1.063.6-.595.874-1.295.932-2.004a5.01 5.01 0 00-.034-1.103c-.086-.676-.358-1.436-.583-2.192-.23-.75-.41-1.496-.356-2.042.03-.334.128-.579.324-.775a.997.997 0 01.82-.293c.355.03.795.23 1.25.688.57.58.687 1.05.654 1.478-.036.426-.261.84-.516 1.182l-.197.265.857.86.272-.293 1.992-2.147-.181-.255c-.294-.41-.939-1.372-1.763-2.206-.967-.966-1.96-1.528-2.941-1.618-.866-.08-1.696.243-2.362.912a3.142 3.142 0 00-.933 2.007c-.048.548.023 1.096.136 1.633.296 1.307.823 2.572.73 3.466-.035.385-.157.688-.438.973-.295.288-.639.419-1.036.383-.396-.034-.86-.244-1.33-.716-.691-.7-.823-1.276-.785-1.788.047-.551.34-1.052.579-1.434M14.063 123.251c.007-.133.018-.16.136-.275.122-.111.38-.247.773-.406l6.72-2.71c.427-.175.722-.253.876-.25.14.007.166.019.265.117.095.1.218.32.352.658l.143.353 1.103-.438-.146-.355-1.912-4.74-1.097.453.142.353c.143.348.205.593.202.728-.01.134-.019.165-.138.283-.123.108-.377.248-.77.407l-6.72 2.71c-.42.172-.712.246-.87.246-.142-.01-.174-.024-.273-.118-.095-.102-.215-.316-.352-.65l-.142-.354-1.1.436 2.056 5.1 1.097-.462-.14-.35c-.147-.353-.209-.601-.205-.736M28.795 127.845l-.14-.23-.895-1.481-10.15 1.885a3.914 3.914 0 01-.715.087c-.248-.004-.37-.044-.515-.147-.142-.104-.313-.31-.52-.653l-.199-.328-1.016.61 2.557 4.255 1.015-.622-.197-.326c-.285-.461-.385-.774-.375-.873.012-.075-.018-.03.065-.097.07-.052.262-.113.699-.192l6.623-1.25-4.26 5.138c-.294.354-.423.462-.525.527-.06.035-.088.037-.098.037-.01 0-.047 0-.15-.096a2.669 2.669 0 01-.374-.516l-.2-.328-1.018.614 2.862 4.758 1.016-.62-.196-.328c-.265-.436-.359-.694-.354-.868-.012-.228.172-.55.718-1.196l6.342-7.76M10.69 114.418c.011-.21.03-.239.141-.337.121-.098.404-.212.862-.32l7.032-1.755c.345-.087.604-.13.774-.128.226.008.26.036.346.126.084.098.19.337.285.731l.091.369 1.155-.28-.093-.374-2.073-8.32-3.15.648.304 1.219.36-.072c.17-.035.327-.052.461-.052.308.002.502.073.689.244.184.177.363.496.495 1.032l.378 1.502c.06.231.087.398.087.48-.018.104.02.034-.05.098-.076.056-.312.142-.693.238l-3.013.744-.44-1.766a2.297 2.297 0 01-.081-.518c.01-.212.034-.233.123-.313.097-.081.333-.173.697-.257l.377-.09-.298-1.19-4.13 1.025.288 1.188.373-.093c.304-.075.53-.115.668-.112.176.01.176.019.24.088.065.073.158.284.244.64l.44 1.77-2.522.632c-.248.063-.438.091-.56.091-.156-.007-.173-.025-.216-.063-.045-.043-.12-.178-.182-.437l-.258-1.044a3.942 3.942 0 01-.135-.924c.007-.421.107-.61.252-.758.15-.153.4-.268.724-.373l.34-.11-.303-1.209-3.084.906 2.098 8.43 1.157-.293-.093-.372c-.071-.283-.108-.498-.107-.64M31.645 31.019c.4-.366.642-.476.742-.466.065 0 .142.018.283.119.14.097.323.275.55.525l4.85 5.388c.43.47.568.758.556.867.012.1-.102.324-.545.715l-.289.258.803.876.282-.254 3.788-3.407-.794-.888-.285.257c-.395.364-.637.476-.74.464-.063 0-.14-.018-.282-.118a3.544 3.544 0 01-.546-.524l-4.85-5.386c-.432-.466-.57-.756-.554-.866-.015-.104.104-.328.54-.715l.283-.256-.794-.887-4.073 3.667.787.89.288-.26M7.707 101.397a4.216 4.216 0 01-.016-.282c-.008-.437.057-.562.139-.63.088-.086.396-.183.971-.219l7.23-.568c.123-.008.235-.015.337-.017.477-.01.652.065.716.14.08.07.173.325.209.838l.03.388 1.185-.1-.03-.381-.332-4.296-1.188.093.032.384c.008.11.014.206.016.295.008.433-.058.553-.14.617-.087.087-.398.18-.974.22l-6.152.475 8.133-5.615-.168-2.197-9.592.739a7.07 7.07 0 01-.362.023c-.471.011-.64-.066-.698-.133-.076-.065-.17-.321-.204-.844l-.03-.385-1.184.101.362 4.664 1.184-.076-.03-.386a4.008 4.008 0 01-.016-.282c-.008-.437.06-.565.142-.633.088-.085.396-.183.975-.223l5.681-.444-7.685 5.312.3 3.888 1.189-.08-.03-.386M43.441 27.335c.109 0 .215-.003.32-.007.955-.039 1.902-.216 2.687-.213.801.006 1.354.158 1.732.693a1.3 1.3 0 01.245.748c0 .475-.275 1.024-.983 1.523-.572.4-1.037.526-1.434.526-.749.004-1.343-.493-1.773-.877l-.227-.201-.976.68 2.09 2.764.266-.099c.558-.205 1.668-.599 2.805-1.393 1.477-1.038 2.516-2.266 2.525-3.719.002-.66-.228-1.337-.693-1.999-.736-1.064-1.816-1.384-2.907-1.426-.064-.004-.127-.004-.194-.004-1.004.004-2.26.3-3.281.294-.758 0-1.296-.157-1.563-.548a.991.991 0 01-.186-.573c0-.403.253-.919.934-1.393.476-.334.864-.44 1.193-.443.58-.001 1.07.364 1.448.763l.226.242 1.001-.702-.242-.318-1.77-2.325-.281.13c-.458.218-1.518.686-2.48 1.358-1.398.979-2.195 2.125-2.202 3.348 0 .604.206 1.201.592 1.75.791 1.143 1.991 1.429 3.128 1.42M24.152 42.64a3.106 3.106 0 002.026.719c.576 0 1.136-.134 1.679-.31 1.283-.433 2.508-1.1 3.41-1.085.368.003.67.088.973.33.325.27.486.603.49 1.01 0 .393-.165.87-.575 1.376-.64.779-1.208.963-1.735.97-.536.002-1.05-.231-1.445-.425l-.272-.133-.751.921 2.766 2.085.23-.168c.48-.348 1.443-1.032 2.315-2.109.914-1.136 1.511-2.29 1.516-3.441.006-.94-.434-1.84-1.335-2.564a3.1 3.1 0 00-2.023-.716c-.387 0-.775.059-1.16.15-.668.157-1.402.514-2.138.82-.73.31-1.457.565-2.005.56-.32-.002-.561-.071-.77-.24a.994.994 0 01-.38-.807c0-.35.155-.803.551-1.291.529-.64.992-.803 1.433-.81.416 0 .841.18 1.196.391l.285.17.77-.943-.322-.241-2.344-1.752-.233.205c-.379.333-1.267 1.076-2.009 1.988-.843 1.043-1.299 2.07-1.3 3.04-.005.888.406 1.7 1.157 2.3M7.087 84.86c.06-.446.15-.7.228-.787.071-.08.146-.132.47-.14.16 0 .367.02.622.057L15.59 85c.511.067.812.166.922.255.097.082.137.133.146.44 0 .13-.013.3-.042.504l-.053.374 1.174.184.057-.387.597-4.261-1.176-.183-.054.384c-.061.455-.152.712-.23.799-.068.078-.134.126-.452.134-.162 0-.374-.02-.635-.057l-6.116-.857 9.158-3.735.305-2.18-9.525-1.341c-.518-.067-.822-.162-.93-.247-.095-.08-.133-.121-.143-.434 0-.137.016-.311.045-.527l.054-.38-1.177-.162-.657 4.646 1.177.161.055-.379c.058-.446.15-.7.23-.785.069-.079.142-.132.472-.137.159 0 .364.018.615.053l5.65.793-8.652 3.531-.543 3.872 1.172.161.054-.378M9.815 68.662c.115-.365.228-.593.318-.693.093-.095.122-.114.298-.123.168-.001.447.058.834.185l6.893 2.24c.423.134.693.262.815.366.117.108.129.132.14.3.002.141-.048.374-.153.694l-.117.359 1.13.384.12-.37 2.65-8.153-3.014-1.125-.392 1.197.346.13c.33.123.56.269.694.43.137.163.209.344.213.646 0 .217-.047.496-.157.836l-.479 1.47c-.083.267-.158.435-.198.484-.047.04.012.018-.083.03-.1.004-.342-.05-.705-.168l-2.95-.964.56-1.731c.103-.321.212-.51.29-.59.08-.075.11-.089.247-.097.137 0 .362.048.668.15l.363.12.386-1.16-4.055-1.322-.372 1.164.363.12c.356.115.587.22.682.3.09.083.09.076.099.215.003.116-.04.326-.138.621l-.563 1.73-2.47-.8c-.316-.1-.517-.196-.598-.268-.076-.076-.075-.071-.084-.184a1.376 1.376 0 01.082-.4l.336-1.024c.202-.626.422-.98.617-1.162.195-.176.353-.221.59-.226.168-.002.371.036.597.09l.348.087.376-1.188-3.089-.867-2.69 8.263 1.133.37.12-.366M14.556 55.392c.16-.292.298-.486.401-.583.11-.097.15-.109.25-.112.14-.007.44.093.893.35l6.342 3.511c.34.19.57.347.685.468.118.127.13.176.134.272.006.121-.079.377-.29.757l-.185.335 1.039.576.185-.336 2.086-3.768-1.035-.58-.188.333c-.162.296-.3.492-.404.59-.11.095-.15.106-.245.112-.136.006-.439-.096-.896-.355l-5.393-2.992 9.879-.205 1.072-1.932-8.418-4.663c-.342-.19-.574-.345-.693-.466-.12-.125-.13-.17-.134-.259-.005-.114.08-.374.3-.762l.188-.334-1.038-.576-2.282 4.1 1.04.57.185-.332c.162-.29.3-.484.406-.578.109-.098.152-.11.251-.116.14-.006.439.094.89.35l4.993 2.77-9.349.198-1.897 3.414 1.04.578.188-.335M67.686 158.624l-.366 1.13.367.118c.36.115.589.223.69.312.096.095.114.121.127.29.005.166-.052.45-.18.849l-2.215 6.898c-.13.423-.255.69-.357.811-.108.12-.136.134-.298.148-.14.005-.379-.043-.707-.145l-.362-.112-.364 1.121 5.227 1.677.357-1.132-.362-.114c-.361-.116-.59-.226-.696-.318-.096-.09-.112-.114-.123-.28-.007-.164.051-.449.183-.857l2.214-6.899c.135-.417.257-.692.359-.813.105-.12.13-.132.29-.146.14-.006.38.042.714.15l.363.116.362-1.132-.365-.115-4.858-1.557M58.895 155.242l-.48 1.089.35.156c.322.142.533.265.632.365.098.103.11.133.118.26.003.156-.08.45-.273.879l-2.952 6.622c-.166.378-.31.623-.424.746-.117.116-.155.128-.275.134-.13.004-.382-.064-.737-.228l-.351-.158-.484 1.092 5.011 2.23.481-1.092-.35-.153c-.327-.142-.54-.27-.64-.365-.097-.103-.106-.134-.116-.255-.003-.153.081-.45.28-.883l2.95-6.626c.167-.378.31-.626.422-.747.118-.12.151-.13.27-.135.13-.004.38.065.743.232l.352.159.485-1.092-.35-.159-4.662-2.071M81.693 164.26l-.958 7.187c-.049.395-.121.621-.172.686-.048.048-.024.06-.223.076a2.9 2.9 0 01-.403-.029c-1.1-.15-1.747-.456-2.123-.868-.377-.413-.544-.986-.567-1.801-.015-.6.055-1.312.164-2.127.189-1.448.459-2.499.881-3.135.426-.63.946-.924 1.915-.96h.008c.266-.006.564.01.896.055.343.044.51.124.557.165.038.04.057.06.067.233a3.81 3.81 0 01-.042.518m-.377-2.44a11.924 11.924 0 00-1.886-.128c-1.187.028-2.278.336-3.111 1.185-.835.847-1.379 2.168-1.642 4.142-.084.64-.119 1.22-.106 1.748.037 1.708.607 2.902 1.557 3.663.947.76 2.203 1.084 3.606 1.274l4.707.622.158-1.169-.38-.052c-.442-.056-.7-.141-.79-.218-.085-.071-.131-.13-.145-.43-.006-.166.012-.389.05-.67l.953-7.183c.065-.504.156-.808.244-.92.081-.103.117-.137.404-.153.137-.005.32.01.548.037l.377.053.168-1.178-.384-.054-4.328-.569M111.519 168.09l.018.327c.008.121.014.235.014.344-.004.467-.078.741-.265.948-.189.215-.58.424-1.323.58l-.266.059-1.678-7.901a3.71 3.71 0 01-.102-.731c.01-.255.043-.301.13-.383.093-.084.341-.181.75-.262l.375-.08-.243-1.165-.376.083-4.99 1.053.241 1.171.377-.08c.262-.056.466-.084.61-.084.238.014.272.04.364.143.094.119.205.407.304.875l1.677 7.902-.25.058c-.36.073-.655.107-.891.107-.427-.004-.642-.097-.824-.263-.185-.17-.347-.47-.503-.91l-.11-.317-1.198.248.81 3.29 9.113-1.938-.574-3.341-1.19.268M100.412 172.63c-.072.007-.143.012-.208.013-.476.009-.633-.062-.697-.148-.088-.08-.186-.388-.214-.986l-.334-5.622c-.074-1.23-.404-2.244-1.136-2.937-.733-.693-1.806-1-3.213-.966-.102.007-.21.008-.318.015-1.702.1-2.804.612-3.445 1.4-.64.793-.78 1.777-.757 2.72.002.097.006.201.014.302l.333 5.617c.007.09.01.175.014.253.016.52-.067.73-.142.792-.068.08-.318.173-.848.196l-.377.026.063 1.192 4.86-.298-.079-1.18-.38.02a2.85 2.85 0 01-.21.011c-.474.011-.63-.063-.695-.145-.087-.082-.186-.39-.214-.984l-.332-5.617c-.005-.116-.012-.225-.014-.33-.022-.897.119-1.471.407-1.809.28-.339.775-.557 1.674-.61.056-.001.107-.006.157-.006.902-.01 1.3.234 1.577.627.278.405.404 1.072.446 1.868l.336 5.618.01.243c.015.53-.067.743-.143.806-.066.082-.314.176-.844.2l-.382.024.064 1.186 5.478-.325-.067-1.188-.384.023M116.344 22.968c.835.336 1.637.55 2.393.59l.063.006c1.439.076 2.727-.607 3.339-2.173.142-.356.22-.704.237-1.042.041-.797-.237-1.51-.621-2.172-.406-.688-1.094-1.393-1.662-2.106-.573-.708-.98-1.416-.94-1.932a.977.977 0 01.074-.327c.182-.427.548-.677 1.194-.655.254.015.543.078.867.208.572.235.877.523 1.05.822.174.297.225.628.207.968-.01.204-.047.41-.094.601l-.078.32 1.132.459.135-.374.99-2.75-.265-.164c-.43-.266-1.401-.903-2.49-1.342-.726-.294-1.406-.461-2.034-.494-1.426-.095-2.605.601-3.117 1.914a3.169 3.169 0 00-.239 1.042c-.052.998.394 1.857.925 2.618.485.68 1.047 1.296 1.465 1.882.423.588.677 1.122.646 1.617-.006.153-.04.31-.106.477-.234.548-.687.855-1.418.827a2.87 2.87 0 01-.89-.21c-.728-.3-1.092-.673-1.298-1.053-.202-.382-.245-.801-.224-1.197.012-.228.046-.445.076-.636l.047-.3-1.103-.448-1.184 3.252.224.172c.476.359 1.414 1.079 2.699 1.6M166.785 59.112c-.124.106-.384.238-.781.387l-6.783 2.556c-.426.164-.721.233-.877.227-.139-.01-.165-.024-.263-.123-.092-.102-.209-.324-.334-.667l-.134-.36-1.117.415.135.362 1.8 4.774 1.114-.424-.134-.359c-.135-.349-.195-.595-.188-.729.012-.133.022-.164.144-.276.124-.107.382-.238.777-.386l6.785-2.556c.424-.161.719-.23.875-.223.141.01.172.027.268.124.09.103.21.321.336.661l.136.359 1.108-.417-1.93-5.14-1.113.432.134.353c.136.356.192.605.186.74-.01.13-.02.158-.144.27M169.877 67.486c-.014.21-.033.236-.144.333-.12.094-.402.207-.86.312l-7.049 1.703c-.345.084-.605.124-.776.123-.224-.011-.26-.039-.344-.13-.084-.098-.185-.339-.277-.733l-.094-.38-1.149.296.09.366 2.011 8.328 3.151-.624-.295-1.217-.36.07c-.17.032-.325.048-.462.048-.307-.007-.502-.077-.686-.25-.184-.178-.362-.498-.492-1.033l-.36-1.51c-.058-.235-.089-.403-.086-.483.018-.101-.022-.029.046-.093.08-.054.315-.137.696-.226l3.02-.728.426 1.77c.057.226.081.402.078.52-.012.209-.034.23-.125.31-.096.08-.333.173-.699.257l-.366.091.274 1.19 4.148-.998-.289-1.19-.373.089c-.304.073-.528.11-.667.11-.172-.013-.17-.021-.237-.092-.064-.076-.156-.29-.24-.65l-.428-1.77 2.528-.61c.253-.062.444-.09.565-.088.152.007.165.024.21.065.043.043.118.18.18.442l.25 1.045c.093.382.13.688.128.925-.01.42-.112.607-.259.756-.15.15-.4.263-.722.364l-.338.106.282 1.211 3.097-.882-2.039-8.45-1.156.294.091.368c.07.284.101.501.101.645M170.659 94.554l.318.079c.522.124.862.269 1.048.464.186.193.311.484.314 1.097 0 .145-.008.31-.024.49l-.024.277-8.052-.707c-.548-.042-.855-.133-.954-.221-.088-.071-.146-.158-.153-.539 0-.112.007-.241.02-.39l.035-.385-1.183-.093-.035.378-.448 5.083 1.19.094.033-.379c.037-.48.124-.737.201-.819.063-.073.184-.142.587-.145.135 0 .295.01.48.025l8.05.707-.022.253c-.073.847-.261 1.27-.485 1.474-.219.21-.58.31-1.183.334l-.333.015-.116 1.213 3.382.192.815-9.288-3.356-.417-.105 1.208M153.504 39.956l-2.016 3.275-1.66-2.11 3.676-1.165zm-8.385.679c-.408-.023-.638-.162-1.059-.676l-.235-.303-.938.736.238.303 2.783 3.526.935-.732-.239-.301c-.33-.405-.436-.681-.42-.736.008-.033-.004-.045.104-.136.104-.083.277-.157.464-.21l.007-.002 1.497-.481 2.372 3.008-.875 1.428c-.096.169-.212.312-.32.4-.041.026-.044.021-.057.024-.015.002-.108-.027-.235-.138a3.51 3.51 0 01-.414-.457l-.238-.299-.934.732L151 50.7l.935-.733-.236-.301c-.368-.47-.482-.743-.472-1.01.004-.249.136-.592.454-1.117l5.288-8.653-1.186-1.502-9.447 3.006c-.548.178-.941.256-1.217.246M161.841 50.847l.186.335c.372-.212.609-.294.673-.284.039.006.032-.006.095.05.061.051.156.186.27.395.295.522.462.966.459 1.31-.007.439-.22.856-1.163 1.393-.524.29-.926.395-1.233.395-.39-.004-.664-.151-.945-.434-.276-.28-.527-.695-.774-1.142l-.097-.18 2.715-1.502-.186-.336zm-1.084-1.96l-6.338 3.52c-.451.25-.755.351-.895.344-.103-.004-.143-.016-.25-.11-.106-.096-.243-.291-.4-.58l-.185-.332-1.044.568.188.337 2.472 4.463 1.042-.575-.186-.336c-.213-.379-.301-.636-.294-.756.005-.096.017-.143.133-.272.117-.123.347-.28.688-.468l2.272-1.256.117.21c.394.707.859 1.5 1.466 2.14.601.633 1.377 1.127 2.34 1.127.553 0 1.149-.164 1.782-.514 1.223-.664 1.784-1.692 1.772-2.775-.001-.87-.32-1.76-.801-2.632l-2.497-4.5-1.044.57.188.337c.216.38.301.634.294.754-.004.098-.016.143-.133.27-.117.121-.345.28-.687.466M171.392 106.206c-.083.415-.183.663-.263.756-.077.084-.117.114-.366.124-.17.004-.419-.033-.743-.101l-7.093-1.507c-.474-.1-.766-.204-.883-.297-.105-.094-.13-.12-.14-.358a3.088 3.088 0 01.084-.616l.08-.378-1.163-.242-.08.372-1.061 4.988 1.16.245.081-.373c.084-.412.183-.657.267-.75.079-.086.124-.122.381-.13.171 0 .412.031.73.099l7.093 1.51c.472.097.76.209.876.3.108.094.132.127.145.366 0 .143-.028.348-.084.61l-.078.375 1.164.243 1.138-5.36-1.164-.253-.081.377M172.51 79.765c.006.125.009.239.006.337-.01.404-.072.507-.161.574-.095.083-.404.171-.97.197l-7.237.41c-.157.01-.296.014-.419.012-.437-.008-.58-.084-.641-.16-.077-.077-.16-.335-.183-.831l-.021-.378-1.184.05.021.389.244 4.31 1.186-.076-.023-.38a4.715 4.715 0 01-.01-.349c.01-.407.075-.504.162-.57.093-.08.404-.166.97-.191l6.16-.347-8.247 5.443.124 2.204 9.606-.548c.166-.008.312-.014.438-.011.43.007.566.08.622.152.074.073.158.336.183.844l.021.383 1.184-.066-.266-4.693-1.184.077.021.38c.008.13.012.244.012.343-.012.401-.076.503-.164.57-.097.082-.408.17-.97.197l-5.683.321 7.786-5.146-.218-3.903-1.187.076.021.38M162.456 116.87l2.883 2.564-3.844-.053.961-2.51zm-2.125-4.795c-.002-.192.053-.434.176-.75l.136-.356-1.107-.438-.139.363-1.608 4.19 1.108.44.136-.362c.124-.323.238-.545.326-.65.094-.113.102-.097.137-.102.021 0 .061.005.124.03.132.05.273.158.421.294l1.183 1.042-1.375 3.578-1.68-.023h-.008c-.017.003-.033.003-.052.003-.157 0-.317-.027-.442-.07-.067-.047-.04.002-.062-.15-.005-.15.078-.443.195-.747l.136-.353-1.107-.436-1.996 5.204 1.108.427.139-.36c.2-.523.372-.764.584-.895.212-.14.572-.21 1.208-.208h.021l10.143.112.681-1.785-7.417-6.578c-.756-.673-.97-1.026-.97-1.42M162.727 130.26c-.172.277-.318.463-.426.554-.113.093-.158.105-.248.11-.136.003-.433-.11-.89-.398l-6.142-3.853c-.321-.202-.538-.37-.65-.494-.112-.13-.124-.185-.126-.27-.004-.119.091-.375.334-.754l.202-.325-1.006-.63-.203.325-4.553 7.262 2.649 1.818.663-1.06-.298-.211c-.481-.344-.662-.62-.658-.985.005-.252.11-.598.394-1.051l.826-1.312c.124-.201.222-.34.282-.393.051-.043.05-.043.054-.04.004 0 .005 0 .009-.003.037-.012.287.08.695.344l2.629 1.647-.968 1.55c-.15.24-.28.388-.373.462-.098.074-.136.08-.208.082-.112.007-.359-.09-.723-.324l-.325-.204-.646 1.042 3.608 2.256.648-1.038-.324-.204c-.276-.17-.462-.311-.557-.413-.09-.102-.09-.126-.093-.186-.006-.077.074-.303.298-.653l.968-1.546 2.204 1.377c.242.15.403.276.483.368.077.095.077.117.08.166.003.057-.044.208-.19.437l-.575.916c-.592.93-.982 1.084-1.29 1.082-.213-.002-.473-.103-.776-.264l-.313-.164-.661 1.05 2.794 1.593 4.61-7.35-1.002-.643-.206.328M136.917 22.208a1.215 1.215 0 00.451-1.635 1.206 1.206 0 00-1.633-.45 1.202 1.202 0 00-.45 1.63 1.216 1.216 0 001.632.455M129.947 29.825a1.22 1.22 0 001.633.455 1.214 1.214 0 00.45-1.635 1.204 1.204 0 00-1.633-.45 1.203 1.203 0 00-.45 1.63M137.016 29.533a1.2 1.2 0 00-1.187-1.204 1.218 1.218 0 00-1.21 1.187 1.214 1.214 0 001.19 1.207 1.205 1.205 0 001.207-1.19M131.49 22.064a1.206 1.206 0 001.205-1.188 1.201 1.201 0 00-1.187-1.205 1.216 1.216 0 00-1.21 1.186 1.214 1.214 0 001.192 1.207M128.225 25.937a1.2 1.2 0 001.638-.425 1.218 1.218 0 00-.423-1.641 1.217 1.217 0 00-1.642.428 1.205 1.205 0 00.427 1.638M137.884 26.525c.57.33 1.308.142 1.637-.426a1.218 1.218 0 00-.422-1.642 1.218 1.218 0 00-1.642.428 1.208 1.208 0 00.427 1.64M135.03 23.16a2.458 2.458 0 01.638 3.415 2.461 2.461 0 01-3.416.638 2.461 2.461 0 01-.637-3.416 2.458 2.458 0 013.414-.637m-4.004.233a3.175 3.175 0 00.824 4.408 3.174 3.174 0 004.407-.822 3.174 3.174 0 00-.823-4.408 3.176 3.176 0 00-4.408.822M56.443 15.295a1.217 1.217 0 001.261-1.132 1.216 1.216 0 00-1.137-1.259 1.206 1.206 0 00-1.257 1.136 1.2 1.2 0 001.133 1.255M61.641 23.003a1.213 1.213 0 00-1.137-1.258 1.204 1.204 0 00-1.257 1.134 1.202 1.202 0 001.133 1.256 1.218 1.218 0 001.261-1.132M62.28 18.37c-.347.54-.2 1.298.35 1.66a1.215 1.215 0 001.659-.357 1.203 1.203 0 00-.355-1.654c-.553-.355-1.3-.2-1.654.352M53.007 19.019a1.215 1.215 0 001.658-.355 1.205 1.205 0 00-.355-1.656 1.201 1.201 0 00-1.654.353c-.347.54-.2 1.298.35 1.658M54.566 22.976c.3.587 1.023.816 1.611.521a1.202 1.202 0 00.521-1.609 1.217 1.217 0 00-1.612-.525 1.214 1.214 0 00-.52 1.613M61.864 15.668a1.202 1.202 0 00.521-1.61 1.217 1.217 0 00-1.612-.525 1.214 1.214 0 00-.52 1.614c.3.586 1.023.816 1.61.521M57.492 16.267a2.458 2.458 0 013.223 1.297 2.46 2.46 0 01-1.298 3.223 2.46 2.46 0 01-3.223-1.298 2.459 2.459 0 011.298-3.222m2.204 5.176a3.173 3.173 0 001.675-4.159 3.175 3.175 0 00-4.158-1.675 3.174 3.174 0 00-1.676 4.159 3.172 3.172 0 004.159 1.675M124.433 17.935c.102.649.735 1.098 1.37.998a1.206 1.206 0 00.999-1.368 1.202 1.202 0 00-1.367-.997c-.633.101-1.1.716-1.002 1.367M124.755 22.6c.229-.6-.07-1.312-.683-1.552a1.213 1.213 0 00-1.55.687 1.205 1.205 0 00.686 1.548 1.2 1.2 0 001.547-.683"/>
        <path d="M90.239 12.987a1.207 1.207 0 00.998-1.368 1.202 1.202 0 00-1.365-.998 1.217 1.217 0 00-1.003 1.367c.1.65.735 1.097 1.37.999M63.219 49.83a5.545 5.545 0 00-.558 4.235 5.548 5.548 0 002.601 3.389c1.398.808 7.453 2.473 12.517 3.785a5.968 5.968 0 011.051-.86c-5.605-1.441-11.728-3.13-13.02-3.877a4.45 4.45 0 01-2.089-2.721 4.46 4.46 0 01.448-3.402 4.499 4.499 0 013.888-2.242c.782 0 1.555.208 2.237.6 1.426.824 6.8 6.178 11.121 10.622a7.375 7.375 0 011.316-.121c.032 0 .065.003.097.004-3.794-3.913-10.25-10.454-11.985-11.456a5.587 5.587 0 00-2.786-.748 5.599 5.599 0 00-4.838 2.792M84.436 59.426c.583.13 1.103.312 1.556.52a6.14 6.14 0 01-.007-.547c-4.64-4.474-11.196-10.976-12.115-12.568a4.458 4.458 0 01-.448-3.403 4.459 4.459 0 012.09-2.721c.68-.394 1.454-.6 2.236-.6 1.599 0 3.088.857 3.887 2.24.868 1.505 3.017 9.56 4.563 15.722.017-.054.027-.108.045-.162a8.14 8.14 0 01.673-1.472C85.56 51.102 83.51 43.4 82.586 41.8a5.597 5.597 0 00-4.838-2.793 5.6 5.6 0 00-2.786.748 5.547 5.547 0 00-2.601 3.39 5.544 5.544 0 00.558 4.234c1.007 1.744 7.612 8.262 11.517 12.047M88.536 54.218c-1.493-5.39-2.967-11.111-2.967-12.542a4.49 4.49 0 014.484-4.484 4.489 4.489 0 014.483 4.484c0 1.364-1.336 6.62-2.753 11.774.272.117.621.279 1.003.479 1.362-4.94 2.849-10.689 2.849-12.253a5.587 5.587 0 00-5.582-5.581 5.588 5.588 0 00-5.582 5.581c0 1.707 1.77 8.398 3.217 13.583.312-.421.61-.776.848-1.04M94.655 55.135c1.428-5.54 3.081-11.514 3.817-12.788a4.497 4.497 0 013.887-2.24c.781 0 1.556.206 2.236.6a4.466 4.466 0 012.09 2.721 4.459 4.459 0 01-.449 3.403c-.761 1.319-5.393 6.008-9.599 10.124h.355a5.329 5.329 0 012.19-1.204c.103-.028.209-.049.314-.075 3.404-3.378 6.973-7.051 7.692-8.297a5.55 5.55 0 00.557-4.234 5.544 5.544 0 00-2.601-3.39 5.592 5.592 0 00-2.785-.748 5.603 5.603 0 00-4.84 2.79c-.814 1.412-2.503 7.565-3.82 12.656.322.205.648.432.956.682M101 55.445a9.036 9.036 0 011.527.018c3.228-3.232 6.265-6.137 7.285-6.725a4.486 4.486 0 012.237-.601c1.599 0 3.09.858 3.887 2.242a4.49 4.49 0 01-1.64 6.125c-.933.538-4.39 1.57-8.352 2.645l-.296.327c-.228.26-.572.674-.928 1.135 4.428-1.177 8.941-2.474 10.125-3.157a5.588 5.588 0 002.041-7.624 5.596 5.596 0 00-4.837-2.792c-.974 0-1.937.259-2.785.75-1.24.714-4.895 4.262-8.264 7.657M88.853 87.238a1.205 1.205 0 00-1.633-.45 1.202 1.202 0 00-.45 1.63 1.218 1.218 0 001.634.455c.57-.324.767-1.076.45-1.635M92.245 100.16a1.214 1.214 0 00.45-1.634 1.206 1.206 0 00-1.632-.45 1.201 1.201 0 00-.45 1.63 1.216 1.216 0 001.632.455M89.981 102.082a1.214 1.214 0 00.45-1.635 1.205 1.205 0 00-1.633-.45 1.204 1.204 0 00-.45 1.63c.319.558 1.06.778 1.633.455M94.853 98.788a1.214 1.214 0 00.45-1.634 1.204 1.204 0 00-1.632-.45 1.203 1.203 0 00-.451 1.63 1.22 1.22 0 001.633.454M96.583 93.634c.32.556 1.058.776 1.633.453a1.214 1.214 0 00.45-1.634 1.204 1.204 0 00-1.633-.45 1.2 1.2 0 00-.45 1.63M90.508 92.004a1.2 1.2 0 00-.45 1.629 1.217 1.217 0 001.634.454c.57-.324.767-1.075.45-1.634a1.206 1.206 0 00-1.634-.45M98.696 91.274a1.215 1.215 0 00.45-1.635 1.205 1.205 0 00-1.632-.449 1.2 1.2 0 00-.45 1.63 1.216 1.216 0 001.632.454M91.032 89.64a1.205 1.205 0 00-1.634-.45 1.2 1.2 0 00-.449 1.63 1.217 1.217 0 001.634.454c.57-.324.766-1.075.449-1.635M86.123 76.51c.137.341.463 1.39.334 2.127-.159.912-.553 1.522-.555 1.526l.913.61c.021-.032.525-.797.725-1.95.207-1.19-.373-2.66-.397-2.721l-1.02.408"/>
        <path d="M100.805 61.7a25.308 25.308 0 00-.982 2.673c-.882-.273-2.707-.692-5.595-.692-.543 0-1.107.014-1.676.045-4.342.227-7.475 2.084-8.6 2.856l-3.79-3.79c.543-.395 1.637-.974 3.244-.763 1.847.24 2.842 1.397 2.85 1.406l.273.33 3.13-1.499-.315-.519c-.01-.016-.948-1.62-.497-2.972.378-1.137 1.357-2.309 1.817-2.817.824.352 2.304 1.11 2.883 1.948.777 1.128.506 3.019.502 3.039l-.084.566 3.682.394.055-.551c.002-.024.26-2.421 2.206-2.955a6.85 6.85 0 013.13-.094c-.689.83-1.773 2.29-2.233 3.394m-.666 14.236c.33.828.638 1.804.677 2.636.082 1.844-.825 3.598-1.985 3.83-.848.17-1.56-.183-1.843-.355.59-.601 1.19-1.459 1.722-2.685.202-.463.385-.87.549-1.234.404-.902.7-1.568.88-2.192m-5.762 6.37c-.317.046-1.763-.386-3.893-2.922-1.739-2.072-2.017-4.398-2.06-4.969.261-.499 1.157-2.227 1.56-3.316.29-.785.25-1.63.155-2.236 1.044-.307 2.153-.572 3.197-.704.601-.076 1.22-.115 1.836-.115 1.76 0 3.15.314 3.821.5.058.644.015 1.142-.033 1.662-.033.349-.065.706-.07 1.109l-2.72-.041.413 4.186-1.442.338 1.167.44 1.03-.395-.663-3.608 2.339.61c.02.132.043.268.072.413.357 1.778.105 2.338-.83 4.421-.164.367-.35.777-.552 1.245-1.173 2.696-2.587 3.275-3.327 3.382m-6.058-2.37c-.407.958-1.187 2.132-2.472 2.045-.996-.07-1.728-.435-2.117-1.058-.393-.627-.416-1.484-.065-2.352.09-.224 2.219-5.5 2.282-7.092.016-.421.01-.79-.006-1.099.56-.241 1.73-.72 3.135-1.185.057.45.065 1.016-.121 1.523-.44 1.185-1.56 3.297-1.572 3.317l-.066.125.002.143c.002.104.058 2.198 1.383 4.448l-.383 1.185zM84.56 67.498c1.01-.687 3.985-2.464 8.048-2.676.552-.03 1.096-.043 1.62-.043 2.879 0 4.632.44 5.364.674l-.39 2.006a15.74 15.74 0 00-4.03-.513c-.662 0-1.327.041-1.975.123-2.997.38-6.388 1.742-7.609 2.266l-1.028-1.837zm19.663-10c-.086-.035-2.125-.839-4.606-.157-2.01.55-2.693 2.418-2.912 3.36l-1.517-.163c.037-.783-.015-2.207-.737-3.255-1.002-1.452-3.626-2.448-3.736-2.489l-.331-.125-.25.25c-.071.071-1.746 1.759-2.329 3.51-.43 1.288.005 2.628.327 3.35l-1.337.642a5.968 5.968 0 00-3.248-1.482c-2.922-.382-4.532 1.386-4.599 1.461l-.342.387 4.678 4.678 1.55 2.77c.02.312.034.718.015 1.2-.04 1.04-1.339 4.591-2.202 6.723-.484 1.197-.43 2.417.151 3.347.407.65 1.253 1.452 2.974 1.57.638.044 1.185-.099 1.648-.352l-.375 1.176.743 1.293 1.56-4.869c.06-.144.11-.28.157-.409.047.059.09.117.139.176 2.059 2.453 3.732 3.315 4.69 3.315.07 0 .137-.006.2-.015a3.713 3.713 0 001.185-.39l-1.517 4.33 1.863.117.251-1.084-.6-.038 1.099-3.13c.517.235 1.31.466 2.232.281 1.916-.382 2.96-2.82 2.865-4.954-.092-2.035-1.485-4.62-1.653-4.923a9.602 9.602 0 00-.096-.557c-.25-1.25-.182-1.972-.11-2.736a9.86 9.86 0 00.044-1.699l.667-3.436c.268-1.286.805-2.44 1.067-3.08.583-1.428 2.573-3.694 2.594-3.717l.524-.582-.726-.294"/>
        <path d="M93.655 78.41l.526.16.32.55h2.402l.252-.413.342-.252.138-.457-3.843-.023-.137.435M94.661 71.342l-3.613.092.55 1.532 2.858-.8.205-.824M91.921 89.938l3.572-.02.255-1.1-4.207.025.38 1.095M92.781 92.422l2.144-.052.256-1.105-2.777.068.377 1.089"/>
        <path d="M139.99 132.574h-2.407V79.507h1.989v-7.256h-.765v-4.34h.765v-5.61h-3.59c-2.233-14.995-11.6-27.497-24.357-34.221 25.62 8.943 44.052 33.342 44.052 61.973 0 16.209-5.913 31.06-15.688 42.52m-1.328 5.612h-16.064v-3.964h16.064v3.964zm-8.038 5.598a1.788 1.788 0 01-1.784-1.784c0-.986.801-1.786 1.784-1.786.984 0 1.785.8 1.785 1.786 0 .981-.801 1.784-1.785 1.784m-2.926-.002a65.494 65.494 0 01-18.362 9.003c.026-.016.056-.03.082-.046 6.607-3.59 8.61-5.649 8.93-9.18.073-.797-.064-1.571-.227-2.16 1.284-.486 2.424-1.01 3.392-1.567h6.455a3.415 3.415 0 00-.27 3.95m-25.714 10.484c4.39-2.223 6.842-5.354 7.366-7.865.218-1.043.099-2.013-.042-2.656 2.913-.54 5.534-1.202 7.774-1.972.126.478.228 1.08.174 1.685-.283 3.115-2.08 4.903-8.362 8.319-1.903 1.032-4.55 1.872-6.91 2.49m-5.354.834c3.034-1.7 4.671-4.23 4.973-6.405.208-1.51-.183-2.953-.51-3.831a95.782 95.782 0 007.132-.93c.121.527.235 1.355.05 2.242-.569 2.73-4.017 6.557-10.245 8.508-.52.163-.98.299-1.4.416m-4.492.468c.861-1.079 2.194-2.956 2.626-4.687.49-1.96.02-3.857-1.358-5.568 2.242-.057 4.432-.176 6.544-.349.29.697.766 2.13.566 3.581-.354 2.546-2.872 5.663-7.706 6.884a7.08 7.08 0 01-.672.14m-2.084-11.856c-13.268 0-25.472-2.178-30.897-5.465v-3.667c6.053 3.204 17.807 5.222 30.897 5.222s24.843-2.018 30.898-5.22v3.666c-5.427 3.286-17.631 5.464-30.898 5.464m-4.71 7.168c.433 1.73 1.765 3.606 2.625 4.687a7 7 0 01-.67-.139c-4.834-1.22-7.354-4.338-7.706-6.884-.2-1.452.276-2.884.565-3.581 2.112.173 4.302.292 6.543.35-1.376 1.71-1.846 3.607-1.357 5.567m-3.266 3.803c-6.228-1.95-9.676-5.777-10.246-8.508-.183-.88-.068-1.712.052-2.241 2.236.384 4.625.694 7.131.929-.327.878-.719 2.321-.51 3.83.302 2.177 1.94 4.706 4.973 6.406-.42-.117-.88-.253-1.4-.416m-10.864-2.908c-6.28-3.416-8.079-5.204-8.361-8.319-.055-.605.048-1.207.173-1.685 2.24.77 4.862 1.432 7.774 1.972-.141.643-.26 1.613-.042 2.656.524 2.51 2.977 5.642 7.367 7.865-2.359-.617-5.007-1.456-6.91-2.489m-18.781-8.033a3.407 3.407 0 00-.293-3.912h6.455c.968.557 2.107 1.08 3.391 1.568-.162.588-.3 1.362-.228 2.16.32 3.526 2.32 5.585 8.902 9.165a65.504 65.504 0 01-18.227-8.981m-2.95.04a1.787 1.787 0 01-1.784-1.784c0-.986.8-1.786 1.784-1.786s1.784.8 1.784 1.786c0 .981-.8 1.784-1.784 1.784m-8.039-5.598v-3.964H57.51v3.964H41.444zM24.43 90.053c0-28.631 18.431-53.03 44.05-61.973-12.756 6.724-22.123 19.226-24.354 34.22h-3.59v5.611h.764v4.34h-.764v7.256h1.988v53.067h-2.408c-9.774-11.461-15.686-26.312-15.686-42.521m62.159-56.718A35.89 35.89 0 0054.704 62.3h-8.909C48.94 41.956 65.715 26.433 86 24.588c-.53 1.447-.854 3.04-.854 4.487 0 1.98.587 3.353 1.442 4.26M42.181 63.947h14.59v2.316h-14.59v-2.316zm12.949 3.964h1.426v3.322c-.617-.798-1.329-1.995-1.426-3.322m-.568 2.132c.404.916.956 1.676 1.405 2.208h-2.81c.449-.532 1-1.292 1.405-2.208m-4.524-2.132h3.963c-.13 1.763-1.355 3.294-1.982 3.968-.627-.674-1.853-2.205-1.981-3.968m-.562 2.132c.404.916.956 1.676 1.406 2.208H48.07c.449-.532 1.001-1.292 1.405-2.208m-4.523-2.132h3.962c-.129 1.763-1.354 3.294-1.982 3.968-.626-.674-1.852-2.205-1.98-3.968m-2.556 3.322V67.91h1.425c-.097 1.327-.808 2.524-1.425 3.322m1.994-1.19a9.323 9.323 0 001.405 2.208h-2.81c.449-.532 1-1.292 1.405-2.208m-1.868 7.818h-.342v-3.963h14.59v3.963H42.524zm1.647 1.646h10.613v2.197H44.17v-2.197zm10.613 53.067H44.17v-2.196h10.613v2.196zM44.17 83.35h10.613v45.381H44.17V83.35zm63.351 11.245c.471-.55.806-.982 1.016-1.266l10.665-.006c-.183.228-.495.435-1.05.435-.337 0-.647-.02-.944-.039-1.117-.07-2.172-.137-3.912.79-1.406.75-1.86 1.628-2.006 2.16-1.453-.446-3.385-.999-4.029-1.183-.058-.163-.092-.48.26-.89m-.348-4.933h2.813v2.562h-2.813v-2.562zm2.813-1.097h-2.813v-9.699h2.813v9.699zm0-10.796h-2.813v-2.7h2.813v2.7zm6.145-3.797h-5.211v-.002l-1.388-1.828h4.744l1.855 1.83zm-5.046 1.097h5.146v2.7h-5.146v-2.7zm5.146 17.155h-5.146v-2.562h5.146v2.562zm-5.146-13.358h5.146v9.699h-5.146v-9.699zm6.16-4.894v-.002l-1.854-1.828h2.252l2.088 1.83h-2.486zm.084 1.097h2.528v2.7h-2.528v-2.7zm2.528 17.155h-2.528v-2.562h2.528v2.562zm-2.528-13.358h2.528v9.699h-2.528v-9.699zm-11.853-6.724h2.659l1.388 1.83h-2.68l-1.367-1.83zm-.586 3.457c-.006-.005-.013-.006-.018-.012V73.06l1.204 1.698v2.602L104.89 75.6zm1.186 14.023v2.058l-1.204-1.696v-2.138l1.204 1.776zm-1.186-3.326c-.006-.005-.013-.007-.018-.012V77.15l1.204 1.776v9.128l-1.186-1.758zm-29.998 37.866c.443.188.992.364 1.662.468 1.56.24 3.277-.056 3.853-.172.752.358 3.696 1.592 8.498 1.592.498 0 1.016-.013 1.555-.042 5.173-.279 7.393-1.198 8.116-1.586.379.122 1.104.26 2.373.214.435-.016.81-.052 1.144-.096.267.649.835 2.092 1.327 3.816.55 1.926.788 4.77.852 5.69-.36.242-1.13.69-2.05.82a4.556 4.556 0 01-2.06-.208l-1.137-8.078-1.086.153 1.134 8.078a8.451 8.451 0 01-3.22 1.083c-1.57.19-3.249-.23-4.002-.455l-.495-7.993-1.096.07.493 7.962c-.38.202-1.34.617-2.793.617-1.319 0-2.288-.31-2.783-.51l.53-8.136-1.097-.07-.526 8.088c-.532.18-1.882.57-3.2.427-1.314-.146-2.499-.791-2.965-1.074l1.556-7.847-1.077-.213-1.572 7.926c-.559.088-1.574.19-2.542-.018-.974-.212-1.495-.646-1.706-.866.095-.781.426-3.373.823-5.244.32-1.51 1.062-3.381 1.491-4.396m3.183-8.975c.18 0 .342-.007.492-.022-.039.424.043.896.394 1.315.214.256.508.425.832.526-.091.415-.2 1.02-.272 1.8a36.19 36.19 0 00-.139 2.948h1.098c0-.013.002-1.401.135-2.848.08-.856.205-1.482.292-1.844.032-.005.063-.014.094-.022.229.505 1.03 2.13 2.194 2.906.547.365 1.191.732 1.76 1.058.67.382 1.366.78 1.588 1.001a29.689 29.689 0 001.121 1.05l.221.2.931-.254c.215.283.475.52.81.641.37.135.714.178.997.178.408 0 .687-.088.736-.104l.424-.142-.028-.241h.94l.064-.479c.01-.07.216-1.726-.37-3.408-.364-1.047-.898-1.688-1.328-2.204-.257-.31-.48-.577-.613-.865-.341-.737-.36-1.141-.362-1.141v-.332l-.598-.315-2.902-7.617c.486-.066 1.434-.164 3.178-.268.245.537.876 2.025 1.083 3.528.265 1.922.2 4.824.2 4.853l1.098.025c.003-.121.067-3.017-.21-5.028-.19-1.369-.679-2.684-.996-3.437.894-.03 1.793.001 2.642.068.392.728 1.816 3.504 2.56 6.592.868 3.61 1.08 8.627 1.083 8.677l1.097-.045c-.009-.21-.218-5.173-1.113-8.888-.633-2.632-1.71-4.99-2.32-6.204 2 .244 3.48.612 3.504.62l.565.143.719-3.774c.097-.2.22-.453.376-.784.63-1.326 1.225-3.492 1.15-5.065-.042-.906-.537-1.853-.973-2.52h.014l.148-.296c.029-.06.738-1.482 1.392-3.13l.037-.097c.378.219.883.557 1.315 1.022.532.574 1.12 3.46 1.367 5.327l.037-.006a16.61 16.61 0 00-1.931 1.595c-1.56 1.497-1.86 1.853-1.904 1.909l.857.685c.01-.013.292-.348 1.806-1.802 1.278-1.227 2.405-1.903 2.831-2.14l2.205.682c-.242.839-2.001 4.356-3.034 5.622-1.292 1.582-2.3 2.33-2.322 2.348l.729.821c.084-.075 1.096-.823 2.444-2.476 1.16-1.421 2.965-5.059 3.232-5.988l.788.248c-.157.528-.752 2.49-1.732 5.316-.665 1.917-2.432 7.01-4.363 7.543-.918.253-2.024-.316-2.45-.566-1.232-2.361-2.268-3.7-2.323-3.772l-.865.675c.016.021 1.696 2.195 3.29 5.852 1.334 3.055 1.315 7.167 1.275 8.381-.362.114-1.07.28-2.164.32-1.553.06-2.084-.19-2.09-.192l-.318-.189-.298.213c-.018.014-1.763 1.216-7.802 1.542-6.127.328-9.626-1.496-9.66-1.515l-.184-.098-.2.047c-.02.006-1.981.453-3.635.199-1.126-.175-1.86-.588-2.19-.81.062-.74.236-2.675.448-3.68.226-1.074 1.049-3.406 1.285-4.068.747.142 1.338.2 1.811.2m-5.84-5.758c.284.512.847 1.39 1.654 2.045 1.15.935 2.883 1.634 2.956 1.663l.408-1.019c-.017-.006-1.654-.668-2.671-1.494-.572-.466-1.001-1.082-1.265-1.521 2.44-.737 4.989-1.51 6.058-1.845.443.282 1.492.975 2.089 1.572.501.5 1.034 1.681 1.314 2.386-1.547 1.252-3.244 2.544-3.6 2.687-.629.25-1.687.388-4.792-.5-2.22-.634-3.822-2.32-4.568-3.247.703-.21 1.536-.462 2.416-.727m.697-12.877c.266.072.557.152.859.237.088.593.116 1.832-.726 3.414-1.252 2.349-3.312 4.383-3.333 4.403l.769.785c.089-.088 2.199-2.171 3.533-4.673.792-1.488.926-2.757.887-3.596.482.15.942.3 1.317.443 1.223.461 2.288 1.192 3.084 1.845-.305.444-.579.952-.59 1.365-.031 1.067.446 1.454.794 1.735.147.12.262.214.353.358.208.329.486 1.61.167 2.49-.148.406-.397.66-.763.776-1.563.502-9.33 2.836-11.355 3.445-.268-.783-.696-2.542-.034-4.507.697-2.064 1.569-2.968 2.412-3.843.643-.667 1.308-1.355 1.793-2.487.448-1.043.695-1.738.833-2.19m3.606-3.999c.821.465 1.261.879 1.441 1.068l1.809 4.75c-.839-.66-1.918-1.365-3.162-1.834-1.19-.45-3.12-.973-4.106-1.232.315-.677.954-1.872 1.99-3.036.144-.163.286-.31.426-.448.216.063.75.248 1.602.732m.71-.855l-.167-.1a11.57 11.57 0 00-1.189-.594c.345-.251.648-.424.884-.542l.471 1.236zm7.12 19.948c.237.038.396.218.488.362.307.483-.053.821-.13.884-.415.346-2.82 2.316-3.49 2.853-.484.387-1.179.33-1.432.03-.288-.345-.081-.822-.013-.957.924-.52 3.306-2.445 3.93-2.953.217-.17.446-.25.647-.219m-1.075-4.07l1.136 2.982a1.76 1.76 0 00-.703.074c-.297-.731-.853-1.947-1.484-2.579-.072-.072-.158-.145-.239-.217l1.29-.26zm-3.075-5.918c-.286-.232-.404-.328-.388-.852.002-.119.129-.365.322-.66.224.216.396.395.509.516l1.17 3.072c-.216.041-.409.08-.574.115-.075-.683-.265-1.276-.449-1.568-.187-.296-.41-.477-.59-.623m.86 4.075c.088-.244.138-.501.17-.761.244-.051.573-.118.978-.198l.67 1.76-2.022.408c-.137-.096-.27-.19-.394-.273.257-.248.461-.56.598-.936m8.938 15.115c.254.472.44 1.286.542 1.87a1.793 1.793 0 01-.557-.108c-.339-.124-.648-.84-.853-1.314-.103-.239-.2-.46-.296-.632-.414-.744-1.424-1.266-1.537-1.322l-.493.982c.314.157.883.534 1.071.873.08.145.16.333.247.535l.122.281-.088.025c-.22-.2-.565-.52-.854-.81-.326-.324-.986-.7-1.82-1.178-.58-.33-1.179-.673-1.695-1.017-.946-.63-1.653-2.113-1.82-2.483.746-.598 3.039-2.476 3.445-2.814l.024-.025 3.578 1.878c.05.272.165.695.42 1.248.194.42.472.754.766 1.108.411.493.838 1.005 1.136 1.863.323.93.36 1.877.347 2.426h-.116c-.12-.598-.313-1.372-.601-1.906-.524-.974-1.463-1.772-1.502-1.807l-.71.839c.01.006.821.7 1.244 1.488m-4.479-16.637c1.99-.287 3.683-.436 5.03-.436 3.136 0 6.562.509 7.866.722l-.337 1.77c-1.264-.275-4.428-.871-7.558-.707-2.62.138-3.822.278-4.35.36l-.651-1.709zm-10.53-23.4c.074-.043.246-.051.428-.04l12.586 33.047-1.47-.77-12.078-31.72c.142-.18.359-.42.533-.518m-.87-2.058c.088-.05.304-.054.518-.034l.369.968c-.191.024-.383.071-.55.164a2.256 2.256 0 00-.437.332l-.374-.984c.14-.168.323-.362.474-.446m-.838-2.016l.006-.002.006-.002c.198-.075.366-.14.511-.2l.414 1.088a1.593 1.593 0 00-.631.172c-.131.072-.257.169-.374.272l-.441-1.159c.148-.047.313-.1.509-.17m-3.157-5.731c.114-.617.364-1.131.565-1.468.37.132.89.368 1.372.77.742.618.552 1.936.55 1.947l1.06.27c.003-.012.399-1.087 1.657-1.41.559-.141 1.073.072 1.46.336a6.908 6.908 0 00-1.756.75c-1.092.674-1.369 2.306-1.435 3.227-.16.07-.404.165-.684.27-.284.098-.532.18-.7.229-.639-.665-1.894-1.745-3.165-1.565-.707.1-1.343.324-1.83.543.13-.45.389-.942.909-1.19a2.45 2.45 0 012.175.025l.643-.884c-.008-.008-.996-.9-.82-1.85m1.405 63.264c.029.044.727 1.087 2.504 1.474 1.339.29 2.695.083 3.235-.022.508.316 1.888 1.087 3.478 1.264 1.589.177 3.146-.292 3.732-.496.497.232 1.728.706 3.465.706 1.721 0 2.873-.507 3.356-.77.7.225 2.712.796 4.67.56a9.591 9.591 0 003.771-1.302c.475.169 1.467.436 2.622.272 1.573-.227 2.758-1.176 2.807-1.217l.218-.176-.016-.28c-.007-.132-.159-2.75-.624-5.027 6.396.85 11.79 2.237 15.205 3.982-5.825 2.98-17.4 4.92-29.916 4.92-12.517 0-24.09-1.94-29.916-4.92 2.812-1.438 6.967-2.632 11.92-3.484a85.486 85.486 0 00-.597 4.154l-.023.197.11.165zm18.507-99.457A34.264 34.264 0 01123.724 62.3h-1.084c-.717-2.25-2.819-3.887-5.305-3.887-1.676 0-8.158 1.706-13.3 3.137-.296.432-.551.848-.68 1.164l-.078.185c5.784-1.624 12.491-3.388 14.058-3.388a4.484 4.484 0 014.353 3.443v4.957h.764v4.34h-.764v7.256h1.988v53.067h-1.553c-1.27-.813-2.899-1.56-4.81-2.23.206-1.665 2.555-20.832 2.643-29.88l.027-3.276h-1.1a963.17 963.17 0 01-.026 3.265c-.084 8.702-2.285 26.912-2.608 29.535a50.702 50.702 0 00-3.118-.877c.716-4.637 3.11-20.557 3.454-28.58.042-.964.088-2.096.14-3.343h-1.1c-.049 1.226-.096 2.34-.137 3.288-.341 7.926-2.704 23.674-3.43 28.38-2.356-.537-4.962-.98-7.737-1.327a38.077 38.077 0 00-1.129-3.2c.398-.108.615-.208.659-.23l.28-.14.022-.316c.014-.218.332-5.392-1.348-9.244-.12-.273-.24-.536-.358-.793.376.116.788.203 1.214.203.258 0 .52-.031.776-.102 2.186-.603 3.746-4.317 5.107-8.241a129.997 129.997 0 001.741-5.341l.382.124c.873.29 1.693-.1 1.992-.949.281-.788.03-1.806-.871-2.145a14.63 14.63 0 00-.45-.156c.06-.26.323-.907 1.476-1.521 1.463-.781 2.284-.73 3.325-.663.32.02.65.04 1.013.04 1.381 0 2.05-.829 2.292-1.532h.51v-19.35l-3.007-2.654h-14.09V90.07l2.252 3.26 1.038-.001c-.135.168-.286.35-.459.552-.888 1.036-.53 2.037-.215 2.421l.11.133.166.047c.046.013 4.588 1.301 5.653 1.701.282.105.31.504.223.752-.15.426-.498.311-.611.272-1.431-.477-5.666-1.776-5.709-1.789l-.205-.061-.192.092a5.842 5.842 0 00-.387.206c-.201-1.36-.75-4.54-1.582-5.437-.583-.626-1.262-1.06-1.722-1.313.355-1.036.488-2.074-.533-2.732-.888-.573-2.292-1.142-2.786-1.334a1.163 1.163 0 00-.095-.218 1.205 1.205 0 00-1.632-.45 1.2 1.2 0 00-.451 1.63c.32.557 1.06.775 1.633.454.142-.08.26-.186.354-.31.573.23 1.685.702 2.381 1.15.473.305.367.807-.216 2.263l-.11.276a44.434 44.434 0 01-1.209 2.75l-15.62.38-2.79-7.17c.458-.279.905-.504 1.878-.83a9.41 9.41 0 01.26-.083l2.1 5.92 3.575-.087-.358-1.09-2.45.06-1.808-5.105c.262-.068.513-.13.74-.181.367.39.979.514 1.47.239.571-.324.767-1.075.45-1.635a1.205 1.205 0 00-1.632-.45c-.303.174-.5.465-.572.783a24.13 24.13 0 00-2.122.588c-1.6.534-2.458 1.158-2.512 1.195l-.349.243 3.363 8.72 7.75-.19c-.129.327-.122.704.065 1.03a1.218 1.218 0 001.633.454c.539-.305.737-.99.492-1.537l2.233-.055c-.09.303-.066.639.102.932a1.219 1.219 0 001.633.455c.508-.288.716-.912.535-1.441l1.286-.031c.431.55 1.159 1.652 1.2 2.541.067 1.378-.489 3.368-1.044 4.542-.182.385-.313.653-.406.84-1.3-.216-4.799-.743-8.088-.743-1.455 0-3.283.165-5.43.485L74.694 75.745c.038-1.012.3-2.223.929-2.61 1.11-.684 2.366-.808 2.378-.81l.971-.091-.58-.783c-.058-.077-1.425-1.882-3.319-1.4a3.476 3.476 0 00-1.462.763c-.13-.477-.378-.972-.832-1.352a5.63 5.63 0 00-2.379-1.152l-.141-.024-.002-.008-.005.007-.007-.002.002.007-.092.11c-.035.04-.836 1-1.096 2.405-.107.582.02 1.121.223 1.571a3.494 3.494 0 00-1.612.346c-1.765.84-1.664 3.101-1.658 3.197l.052.975.806-.55c.01-.007 1.056-.714 2.347-.897.728-.102 1.7.657 2.376 1.408l4.79 12.578c-.63.297-1.629.906-2.696 2.108-1.698 1.91-2.41 3.872-2.44 3.953l-.203.57.587.148c.005.002.095.023.237.06-.123.397-.351 1.04-.78 2.038-.406.947-.947 1.508-1.574 2.159-.884.916-1.886 1.954-2.661 4.253-1.042 3.087.203 5.663.256 5.77l.206.417.444-.134.93-.278c.669.91 2.554 3.152 5.395 3.962.396.114.757.208 1.098.292-.292.82-1.05 2.991-1.279 4.078-.279 1.324-.482 4.006-.49 4.12l-.02.265.194.18c.014.012.132.113.331.25-.41.96-1.136 2.773-1.517 4.368a72.726 72.726 0 00-4.356.846c-.726-4.703-3.09-20.456-3.43-28.382-.28-6.45-.801-20.197-1.103-28.22h-1.098c.301 8.018.825 21.809 1.103 28.274.346 8.024 2.738 23.945 3.455 28.583a49.435 49.435 0 00-3.119.875c-.323-2.625-2.524-20.833-2.608-29.535-.063-6.446-.125-20.161-.16-28.196H59.99c.034 8.036.096 21.758.159 28.208.087 9.046 2.436 28.211 2.642 29.878-1.91.671-3.536 1.418-4.806 2.23H56.43V79.508h1.989v-7.256h-.765v-4.34h.765v-4.956a4.481 4.481 0 014.352-3.444c1.53 0 7.954 1.68 13.638 3.271l.808-.91c-5.276-1.485-12.642-3.46-14.446-3.46-2.486 0-4.587 1.638-5.305 3.888h-1.084a34.263 34.263 0 0133.671-27.488m33.282 29.135h14.59v2.316h-14.59v-2.316zm.216 7.286V67.91h1.424c-.096 1.327-.808 2.524-1.424 3.322m3.398 1.018h-2.812a9.29 9.29 0 001.406-2.208c.405.916.957 1.676 1.406 2.208m1.137-.372c-.627-.674-1.853-2.205-1.98-3.968h3.962c-.13 1.763-1.354 3.294-1.982 3.968m3.949.372h-2.811c.448-.532 1.001-1.292 1.405-2.208.404.916.956 1.676 1.406 2.208m1.137-.372c-.627-.674-1.853-2.205-1.981-3.968h3.961c-.128 1.763-1.353 3.294-1.98 3.968m3.11-3.968h1.426v3.322c-.617-.798-1.328-1.995-1.425-3.322m.837 4.34h-2.81c.449-.532 1-1.292 1.405-2.208.404.916.956 1.676 1.405 2.208m-13.444 5.61h-.341v-3.963h14.59v3.963h-14.249zm1.647 1.646h10.613v2.197h-10.613v-2.197zm10.613 53.067h-10.613v-2.196h10.613v2.196zM125.323 83.35h10.613v45.381h-10.613V83.35zM94.96 29.075c0-1.447-.325-3.04-.853-4.487 20.284 1.845 37.061 17.368 40.204 37.712h-8.908a35.892 35.892 0 00-31.884-28.965c.853-.907 1.44-2.28 1.44-4.26m-3.806-7.378c.315.3.63.707.93 1.188.038.063.077.127.114.191a9.907 9.907 0 01.241.433l.077.147a32.77 32.77 0 01.199.415c.058.128.115.258.17.392.577 1.385.979 3.034.979 4.612 0 2.237-.855 3.521-1.961 4.141a3.643 3.643 0 01-1.323.432l-.094.012a3.918 3.918 0 01-.432.025c-.144 0-.289-.009-.432-.025l-.094-.012a4.078 4.078 0 01-.427-.079 3.624 3.624 0 01-.895-.353c-1.108-.619-1.961-1.904-1.961-4.141 0-1.578.401-3.226.977-4.611.055-.135.114-.265.172-.393l.043-.095c.05-.108.104-.216.156-.32l.075-.147c.043-.084.09-.166.135-.248l.106-.186c.039-.064.076-.127.115-.188.3-.483.616-.89.93-1.19-37.193.592-67.269 31.025-67.269 68.356 0 17.845 6.875 34.113 18.113 46.3v3.478h7.028a3.42 3.42 0 00-.773 2.168c0 1.89 1.54 3.43 3.43 3.43.176 0 .347-.017.515-.041 11.119 8.079 24.753 12.89 39.488 13.021v-2.744l-.002-.001c-.368-.415-2.544-2.928-3.075-5.05-.47-1.88.127-3.646 1.75-5.269.627.009 1.26.015 1.895.015.637 0 1.267-.006 1.896-.015 1.622 1.623 2.22 3.39 1.748 5.268-.529 2.12-2.709 4.643-3.074 5.052h-.002v2.746c14.76-.114 28.416-4.926 39.552-13.014.148.018.298.032.45.032a3.436 3.436 0 003.432-3.43c0-.822-.291-1.576-.775-2.168h7.03v-3.479c11.237-12.186 18.111-28.454 18.111-46.3 0-37.33-30.074-67.763-67.268-68.355M309.293 6.755c-3.402 0-6.201 2.794-6.201 6.201 0 3.4 2.799 6.195 6.201 6.195 3.282 0 6.2-2.795 6.2-6.195 0-3.407-2.918-6.201-6.2-6.201M304.43 30.628v58.103c1.58-.122 3.16-.368 4.863-.368 1.579 0 3.04.246 4.862.368V30.628c-1.822.123-3.283.361-4.862.361-1.704 0-3.282-.238-4.864-.361M371.299 30.628l-9.724 26.253-7.298 17.136c-.477 1.101-1.452 2.192-2.304 3.405-7.533-17.02-14.709-35.489-18.109-46.794-2.07.123-3.653.361-5.352.361-1.941 0-3.77-.238-5.47-.361 7.66 16.893 19.574 46.548 23.825 58.103 1.212-.122 2.432-.368 3.769-.368 1.097 0 2.301.246 3.641.368 6.086-17.625 18.238-44.364 24.804-58.103-1.464.123-2.677.361-3.893.361-1.337 0-2.673-.238-3.89-.361M407.801 33.665c12.031 0 14.954 10.578 15.196 21.149h-32.333c.732-10.21 5.717-21.149 17.137-21.149m.852 56.034c7.412 0 14.948-2.92 20.908-7.172l.124-6.318c-3.285 3.16-9.729 8.388-17.993 8.388-14.712 0-22.117-11.672-21.028-25.283h17.137c8.14 0 16.411.12 24.683.365 1.21-20.3-11.188-29.782-24.683-29.782-18.102 0-27.834 13.007-27.834 29.907 0 18.834 11.918 29.895 28.686 29.895M450.993 41.321l-.612 1.462V30.628c-1.821.123-3.278.361-4.861.361-1.693 0-3.285-.238-4.857-.361v58.103c1.572-.122 3.164-.37 4.857-.37 1.583 0 3.04.248 4.861.37V57.247c0-6.562.243-10.574 4.502-15.438 1.825-2.064 5.104-3.038 7.781-3.038 2.06 0 3.884 1.46 5.712 1.942l1.696-10.209c-1.099-.483-2.065-.607-3.763-.607-6.077 0-11.312 5.104-15.316 11.424M479.02 43.755c0-6.563 4.99-10.09 11.067-10.09 4.494 0 8.752 4.011 10.328 8.02h1.092a56.885 56.885 0 012.916-8.628c-2.184-1.337-7.406-3.16-13.728-3.16-10.943 0-19.815 6.319-19.815 17.99 0 21.272 28.681 10.57 28.681 26.983 0 6.443-5.95 11.059-11.91 11.059-5.706 0-11.063-4.255-13.974-8.991h-.98c-.481 3.037-1.58 5.96-2.549 8.873 4.263 2.552 10.21 3.888 15.195 3.888 10.697 0 22.358-6.204 22.358-19.204 0-19.448-28.681-11.181-28.681-26.74M523.645 6.755c-3.4 0-6.196 2.794-6.196 6.201 0 3.4 2.796 6.195 6.196 6.195 3.279 0 6.199-2.795 6.199-6.195 0-3.407-2.92-6.201-6.199-6.201M518.78 30.628v58.103c1.59-.122 3.163-.368 4.865-.368 1.583 0 3.043.246 4.866.368V30.628c-1.823.123-3.283.361-4.866.361-1.702 0-3.276-.238-4.865-.361M556.407 65.754V35.249h12.881c-.363-1.214-.363-2.922 0-4.621h-12.881V14.825l-9.732 3.767v12.036h-7.534a9.742 9.742 0 010 4.621h7.534v35.366c-.603 14.827 4.744 19.084 13.982 19.084 3.524 0 6.931-.968 10.21-2.19v-2.912c-1.82.361-3.646.845-5.47.845-10.085 0-8.99-12.27-8.99-19.688M655.324 85.442c-10.09 0-8.993-12.27-8.993-19.688V35.249h12.881c-.367-1.214-.367-2.922 0-4.621h-12.881V14.825l-9.727 3.767v12.036h-7.53a10.095 10.095 0 010 4.621h7.53v35.366c-.61 14.827 4.735 19.084 13.976 19.084 3.535 0 6.93-.968 10.21-2.19v-2.912c-1.826.361-3.647.845-5.466.845M289.527 100.295c-2.548 8.266-12.396 32.21-17.866 45.218-5.588-12.76-12.401-32.94-15.556-45.218-1.22.123-2.188.37-3.16.37-1.097 0-2.185-.247-3.162-.37-4.015 12.764-12.032 34.404-17.015 45.094-5.835-14.096-11.184-30.384-15.437-45.094-2.066.123-3.646.37-5.348.37-1.822 0-3.646-.247-5.35-.37 6.564 15.19 14.343 36.1 21.516 58.104 1.092-.126 2.187-.371 3.283-.371 1.092 0 2.064.245 3.279.37 5.833-18.598 12.52-36.348 16.532-44.13 4.497 11.189 11.788 32.339 14.952 44.13 1.092-.125 2.182-.37 3.278-.37.975 0 1.946.245 3.28.37 7.542-22.244 20.179-49.716 24.434-58.103-1.455.123-2.55.37-3.77.37-1.457 0-2.67-.247-3.89-.37M304.415 100.295V158.4c1.573-.126 3.158-.371 4.862-.371 1.58 0 3.036.245 4.862.37v-58.103c-1.826.123-3.282.37-4.862.37-1.704 0-3.289-.247-4.862-.37M335.421 124.486c.73-10.216 5.719-21.15 17.142-21.15 12.03 0 14.95 10.573 15.192 21.15H335.42zm17.142-24.916c-18.11 0-27.835 13.003-27.835 29.901 0 18.836 11.907 29.896 28.677 29.896 7.426 0 14.958-2.915 20.915-7.174l.124-6.318c-3.285 3.16-9.723 8.386-17.995 8.386-14.705 0-22.12-11.668-21.028-25.276h17.142c8.14 0 16.408.117 24.67.362 1.219-20.3-11.178-29.777-24.67-29.777M414.47 99.57c-8.63 0-15.32 4.379-19.569 11.79v-11.065c-1.824.122-3.28.37-4.858.37-1.707 0-3.283-.248-4.866-.37V158.4c1.583-.126 3.159-.371 4.866-.371 1.578 0 3.034.245 4.858.37v-28.201c0-14.95 3.162-24.314 15.924-24.314 11.422 0 13.487 8.876 13.487 20.182v32.334c1.576-.126 3.164-.371 4.868-.371 1.576 0 3.035.245 4.859.37v-35.132c0-16.043-5.471-23.696-19.568-23.696M609.15 76.454c0 .863-2.453 2.95-3.318 3.813-2.333 2.333-6.51 4.664-9.827 4.664-7.494 0-12.042-3.808-12.042-11.546 0-11.19 12.533-12.416 20.89-14.016l4.298-.862v17.947zm9.838 2.336V50.275c0-13.887-6.999-20.647-19.913-20.647-7.251 0-13.884 2.703-19.784 6.76v6.879h1.354c.86-2.699 5.644-8.478 14.626-8.478 9.21 0 14.377 5.287 14.377 14.382 0 5.898-3.317 6.635-13.028 8.235-11.553 1.84-22.743 3.684-22.743 17.694 0 9.102 7.628 14.994 16.352 14.994 7.378 0 13.024-2.577 18.19-7.739l1.104-1.108c.984 7.255 6.27 8.231 12.658 7.132 1.359-.248 2.832-.862 3.692-1.232v-2.7c-7.257 1.594-6.885-.861-6.885-5.657M584.739 18.844c3.12 0 5.888-2.655 5.888-5.887 0-3.234-2.768-5.89-5.888-5.89-3.234 0-5.89 2.656-5.89 5.89 0 3.232 2.656 5.887 5.89 5.887M612.213 18.844c3.122 0 5.888-2.655 5.888-5.887 0-3.234-2.766-5.89-5.888-5.89-3.233 0-5.882 2.656-5.882 5.89 0 3.232 2.649 5.887 5.882 5.887M223.436 89.7c8.399 0 15.259-3.906 19.173-11.137l.152 10.168c1.531-.122 3.066-.35 4.862-.37 1.536 0 2.953.24 4.861.37V55.29c.765-11.867 4.573-19.074 15.77-19.074 11.425 0 13.494 8.872 13.494 20.18v32.335c1.577-.122 3.159-.37 4.861-.37 1.575 0 3.034.248 4.859.37V53.6c0-16.044-5.47-23.702-19.568-23.702-8.528 0-15.153 4.271-19.416 11.524V30.628h-.15c-1.758.123-3.175.361-4.866.361-1.639-.012-3.176-.246-4.859-.361V67.73c-.704 7.805-4.057 16.013-14.798 16.013-10.939 0-14.706-7.534-14.706-20.297V30.628c-1.825.123-3.282.361-4.864.361-1.701 0-3.28-.238-4.86-.361v35.731c0 16.415 6.684 23.34 20.055 23.34"/>
    </g>
</svg>
